<?xml version="1.0" standalone="no"?>
<!DOCTYPE svg PUBLIC "-//W3C//DTD SVG 20010904//EN"
 "http://www.w3.org/TR/2001/REC-SVG-20010904/DTD/svg10.dtd">
<svg version="1.0" xmlns="http://www.w3.org/2000/svg"
 width="648.000000pt" height="648.000000pt" viewBox="0 0 648.000000 648.000000"
 preserveAspectRatio="xMidYMid meet">
<metadata>
Created by potrace 1.14, written by Peter Selinger 2001-2017
</metadata>
<g transform="translate(0.000000,648.000000) scale(0.100000,-0.100000)"
fill="#000000" stroke="none">
<path d="M3524 6070 c-39 -15 -92 -75 -104 -117 -11 -37 -10 -46 10 -87 42
-88 146 -122 229 -75 77 43 101 141 53 221 -31 52 -128 83 -188 58z"/>
<path d="M4665 6063 c-111 -58 -131 -176 -43 -255 87 -77 225 -36 257 76 18
69 -25 154 -91 181 -48 19 -85 19 -123 -2z"/>
<path d="M512 6013 c-91 -14 -228 -57 -253 -79 -8 -8 -21 -14 -27 -14 -18 0
-127 -111 -147 -149 -43 -85 -61 -220 -41 -321 11 -59 54 -135 100 -178 83
-78 171 -115 446 -192 189 -53 248 -84 297 -156 36 -52 44 -104 21 -150 -48
-100 -168 -156 -321 -150 -103 4 -183 34 -241 91 -24 22 -46 54 -49 71 -9 42
-39 75 -75 82 -18 4 -75 6 -128 4 l-96 -3 5 -67 c6 -88 11 -103 46 -166 100
-174 331 -281 581 -268 47 2 95 4 108 5 12 1 22 4 22 7 0 3 8 6 18 6 39 2 66
11 162 52 176 76 281 245 275 444 -2 65 -8 89 -34 141 -35 70 -56 96 -121 148
-60 49 -179 107 -250 124 -92 21 -318 88 -358 105 -33 14 -64 38 -85 63 -28
36 -32 49 -32 102 0 89 34 134 140 183 47 22 180 27 248 9 79 -21 119 -50 163
-120 20 -32 46 -63 57 -69 18 -9 56 -11 199 -9 l48 1 -6 46 c-3 25 -9 57 -14
70 -5 13 -7 24 -5 24 15 0 -54 112 -94 151 -40 40 -156 117 -186 124 -5 1 -23
7 -39 14 -86 35 -209 44 -334 24z"/>
<path d="M4054 5990 c-39 -15 -51 -73 -52 -250 0 -91 -2 -167 -2 -170 -1 -3
-1 -30 0 -60 0 -30 1 -62 0 -70 0 -8 0 -26 1 -40 0 -14 0 -32 0 -40 -4 -89 -1
-322 4 -330 3 -5 3 -10 -2 -10 -4 0 -7 -17 -6 -37 3 -60 3 -119 3 -253 -1
-182 6 -283 21 -308 15 -24 66 -43 102 -37 12 2 51 6 86 9 36 3 69 10 74 15 6
6 10 296 9 763 0 897 2 805 -20 812 -31 10 -196 15 -218 6z"/>
<path d="M2725 5608 c-130 -17 -218 -65 -281 -154 l-32 -45 -41 53 c-22 29
-56 65 -74 80 -51 40 -144 68 -226 68 -104 0 -167 -28 -260 -117 -41 -40 -76
-71 -77 -70 -1 1 -5 40 -9 87 -3 46 -8 87 -10 90 -2 3 -51 4 -110 4 -85 -2
-111 -5 -124 -18 -14 -15 -16 -74 -16 -604 l0 -587 110 0 c126 0 161 8 171 38
4 12 8 185 9 383 2 408 5 432 66 494 80 81 200 86 277 11 65 -61 66 -70 66
-513 0 -219 4 -398 8 -399 5 0 51 0 103 0 52 0 114 0 138 0 l42 1 1 388 c1
213 4 402 8 421 25 125 168 189 291 130 59 -29 91 -72 99 -137 4 -26 7 -206 8
-400 2 -313 4 -356 19 -381 19 -32 11 -30 153 -32 66 -1 111 2 115 9 3 5 5
208 5 450 -2 463 -2 462 -50 566 -50 107 -136 167 -264 183 -19 2 -39 5 -45 7
-5 1 -37 -1 -70 -6z"/>
<path d="M3451 5600 c-9 -6 -8 -1182 1 -1196 4 -6 46 -10 108 -8 112 2 148 17
160 65 3 13 6 258 5 544 -1 563 -2 579 -52 592 -31 7 -212 10 -222 3z"/>
<path d="M4627 5595 c-44 -22 -44 -29 -43 -616 1 -486 3 -561 16 -569 17 -11
19 -11 125 -14 88 -2 130 7 139 31 8 20 8 1126 0 1146 -3 9 -16 19 -27 23 -36
11 -187 11 -210 -1z"/>
<path d="M2239 4233 c-138 -35 -228 -150 -244 -309 -11 -119 -33 -144 -137
-159 -52 -8 -55 -12 -57 -88 -2 -53 6 -59 84 -70 50 -7 76 -17 95 -36 13 -12
15 -78 17 -445 1 -393 6 -542 17 -554 2 -2 28 -5 58 -7 68 -5 104 9 111 43 3
14 5 227 5 473 0 246 3 461 7 477 8 37 33 48 118 51 70 2 115 8 129 17 4 3 8
31 8 64 0 70 -3 72 -124 75 -48 2 -99 8 -111 15 -52 28 -40 173 19 238 30 34
73 49 136 47 30 -1 65 2 77 8 32 14 58 97 42 129 -20 37 -159 54 -250 31z"/>
<path d="M6191 4149 c-51 -31 -55 -48 -57 -254 -3 -240 -6 -315 -13 -315 -3 1
-34 27 -68 59 -54 50 -183 132 -183 116 0 -3 -10 0 -22 6 -32 18 -157 20 -215
5 -72 -19 -122 -47 -188 -104 -128 -112 -214 -391 -184 -599 40 -274 163 -448
363 -513 104 -34 233 -20 311 33 17 12 65 50 108 85 43 35 81 62 84 58 11 -11
11 -80 0 -101 -16 -31 -44 -52 -167 -125 -169 -99 -191 -111 -350 -190 -240
-119 -313 -151 -480 -213 -52 -19 -104 -38 -115 -43 -11 -4 -22 -8 -25 -9 -3
-1 -57 -18 -120 -38 -260 -83 -560 -148 -785 -172 -33 -4 -70 -8 -83 -10 -185
-30 -741 -19 -1002 20 -14 2 -50 7 -80 10 -30 3 -62 8 -70 10 -17 5 -56 11
-120 20 -25 3 -52 8 -60 10 -8 2 -28 7 -45 10 -39 6 -52 9 -160 34 -123 28
-147 35 -245 65 -47 15 -92 28 -101 30 -8 2 -32 11 -52 20 -21 8 -40 15 -43
15 -22 -3 -449 181 -497 214 -15 10 -27 15 -27 12 0 -4 -15 2 -32 13 -18 11
-64 36 -103 57 -142 76 -485 289 -505 314 -3 3 -22 17 -42 31 -21 14 -38 28
-38 33 0 4 -6 7 -14 7 -8 0 -16 3 -18 8 -4 9 -103 83 -185 138 -53 35 -65 40
-79 29 -16 -11 -16 -15 6 -51 22 -35 61 -81 125 -148 11 -12 69 -74 129 -139
60 -65 123 -133 140 -150 17 -18 67 -73 111 -121 44 -49 91 -100 105 -115 39
-41 231 -261 275 -316 22 -27 47 -56 55 -65 8 -9 42 -47 75 -86 134 -155 266
-289 390 -399 44 -38 82 -73 85 -76 11 -12 200 -149 207 -149 4 0 16 -8 27
-18 32 -28 139 -89 271 -153 202 -98 413 -169 600 -203 17 -3 41 -8 55 -11 14
-3 45 -8 70 -11 25 -3 56 -7 70 -9 125 -23 352 -23 508 -1 18 3 52 8 75 11
258 37 534 125 767 242 133 68 202 105 210 113 3 3 30 21 60 40 71 44 194 136
295 221 129 109 237 217 430 435 6 6 33 37 60 69 28 32 57 66 65 74 9 9 56 63
105 121 50 58 102 118 117 135 29 33 40 46 114 131 143 163 162 189 172 223
12 40 19 1592 7 1623 -10 25 -40 28 -74 7z m-313 -515 c149 -56 206 -138 216
-310 18 -315 18 -322 0 -376 -10 -29 -18 -55 -19 -58 -2 -24 -62 -124 -87
-145 -36 -31 -100 -65 -137 -72 -56 -13 -147 -5 -203 16 -143 55 -252 259
-251 471 1 114 18 188 67 290 44 91 121 161 215 195 46 17 138 11 199 -11z"/>
<path d="M3051 3759 c-39 -10 -92 -31 -118 -46 -114 -66 -209 -197 -254 -348
-21 -69 -29 -210 -15 -265 3 -13 8 -41 11 -62 10 -67 45 -190 67 -232 133
-262 466 -350 720 -189 156 98 250 300 250 538 0 49 -3 106 -6 125 -31 165
-76 261 -166 350 -74 74 -145 114 -242 136 -57 14 -179 10 -247 -7z m273 -138
c92 -45 179 -135 210 -216 33 -87 44 -319 20 -415 -54 -212 -204 -334 -399
-324 -82 5 -184 53 -223 106 -7 9 -19 23 -26 31 -36 36 -89 175 -100 263 -10
74 -7 169 7 224 42 169 109 266 227 329 33 18 60 29 60 26 0 -3 8 -2 18 4 35
20 137 6 206 -28z"/>
<path d="M4380 3768 c-19 -5 -43 -10 -53 -13 -47 -11 -157 -82 -204 -131 -87
-89 -141 -221 -159 -391 -14 -122 -11 -146 30 -286 51 -176 112 -268 224 -334
233 -138 520 -86 669 121 112 156 154 327 128 520 -10 73 -10 73 -39 159 -80
237 -265 373 -496 366 -36 -2 -81 -6 -100 -11z m254 -148 c77 -37 139 -101
176 -183 38 -87 84 -270 76 -310 -3 -17 -8 -45 -10 -62 -6 -38 -41 -147 -58
-177 -7 -13 -11 -26 -10 -30 1 -5 -2 -8 -7 -8 -5 0 -12 -8 -15 -17 -8 -23 -63
-82 -101 -109 -96 -67 -243 -76 -353 -22 -149 74 -236 255 -228 473 6 163 55
293 141 379 21 21 92 69 105 72 3 0 12 4 20 7 75 33 180 28 264 -13z"/>
<path d="M628 3444 c-2 -1 -28 -5 -58 -9 -229 -29 -438 -210 -525 -456 -61
-170 -53 -380 20 -504 26 -45 63 -90 69 -84 2 2 6 27 10 54 21 169 81 343 165
475 42 66 158 185 224 230 103 68 257 128 380 147 49 8 53 16 20 48 -38 36
-113 73 -170 85 -51 10 -131 19 -135 14z"/>
</g>
</svg>
