<svg width="750" height="500" viewBox="0 0 750 500" fill="none" xmlns="http://www.w3.org/2000/svg">
<path d="M253.65 44.2998H120.63V228.26H253.65V44.2998Z" fill="#DBDBDB"/>
<path d="M184.05 52.4697H127.88V133.19H184.05V52.4697Z" fill="white"/>
<path d="M246.4 52.4697H190.23V133.19H246.4V52.4697Z" fill="white"/>
<path d="M184.05 139.37H127.88V220.09H184.05V139.37Z" fill="white"/>
<path d="M246.4 139.37H190.23V220.09H246.4V139.37Z" fill="white"/>
<path d="M629.371 44.2998H496.351V228.26H629.371V44.2998Z" fill="#DBDBDB"/>
<path d="M559.771 52.4697H503.601V133.19H559.771V52.4697Z" fill="white"/>
<path d="M622.12 52.4697H565.95V133.19H622.12V52.4697Z" fill="white"/>
<path d="M559.771 139.37H503.601V220.09H559.771V139.37Z" fill="white"/>
<path d="M622.12 139.37H565.95V220.09H622.12V139.37Z" fill="white"/>
<path d="M67.9099 88.35L80.9999 88.07L87.6899 88C89.9199 88 92.1599 88 94.3899 88H94.8299V88.45L94.8899 99.64V100.14H94.3899L81.1499 100C76.7399 100 72.3199 99.89 67.9099 99.84H67.6299V99.57C67.6299 97.67 67.7099 95.79 67.7599 93.92L67.9099 88.35ZM67.9099 88.35L68.0499 94C68.0499 95.86 68.1599 97.7 68.1799 99.53L67.9099 99.26C72.3199 99.26 76.7399 99.1 81.1499 99.1L94.3899 99L93.8899 99.5V88.31L94.3399 88.76C92.1599 88.76 89.9799 88.76 87.7899 88.7L81.2099 88.59L67.9099 88.35Z" fill="#EBEBEB"/>
<path d="M82.6804 74.2396L95.8104 73.9996L102.47 73.8896C104.69 73.8896 106.93 73.8896 109.16 73.8896H109.6V74.3396V85.5296V86.0296H109.1L95.8604 85.9697C91.4504 85.9697 87.0304 85.8596 82.6204 85.8096H82.4004V85.5396C82.4004 83.6396 82.4804 81.7596 82.5304 79.8896L82.6804 74.2396ZM82.6804 74.2396L82.8204 79.8997C82.8704 81.7597 82.9304 83.5996 82.9504 85.4296L82.6804 85.1597C87.0904 85.1597 91.5104 84.9996 95.9204 84.9996L109.16 84.9296L108.66 85.4296L108.72 74.2396L109.16 74.6897C106.98 74.6897 104.8 74.6896 102.62 74.6296L96.0004 74.5196L82.6804 74.2396Z" fill="#EBEBEB"/>
<path d="M315.841 321.13L328.961 320.85L335.621 320.74C337.851 320.69 340.081 320.74 342.321 320.69H342.761V321.14L342.821 332.33V332.83H342.321L329.081 332.77C324.661 332.77 320.251 332.66 315.841 332.6H315.561V332.33C315.561 330.43 315.651 328.54 315.691 326.68L315.841 321.13ZM315.841 321.13L315.981 326.78C315.981 328.65 316.091 330.49 316.111 332.32L315.841 332.05C320.251 332 324.661 331.89 329.081 331.88L342.321 331.82L341.821 332.32L341.871 321.13L342.321 321.58C340.131 321.58 337.961 321.58 335.771 321.52L329.191 321.41L315.841 321.13Z" fill="#EBEBEB"/>
<path d="M330.61 307L343.73 306.72L350.39 306.61C352.62 306.56 354.86 306.61 357.09 306.56H357.53V307L357.59 318.19V318.69H357.09L343.85 318.63C339.43 318.63 335.02 318.52 330.61 318.46H330.33V318.19C330.33 316.29 330.42 314.4 330.47 312.54L330.61 307ZM330.61 307L330.75 312.66C330.75 314.52 330.86 316.36 330.88 318.19L330.61 317.92C335.02 317.87 339.43 317.76 343.85 317.75L357.09 317.69L356.59 318.19L356.64 307L357.09 307.45C354.91 307.45 352.73 307.45 350.54 307.39L344 307.3L330.61 307Z" fill="#EBEBEB"/>
<path d="M53.1404 74.2396L66.2604 73.9996L72.9203 73.8896C75.1503 73.8896 77.3904 73.8896 79.6204 73.8896H80.0603V74.3396L80.1204 85.5296V86.0296H79.6204L66.3803 85.9697C61.9603 85.9697 57.5504 85.8596 53.1404 85.8096H52.8604V85.5396C52.8604 83.6396 52.9504 81.7596 52.9904 79.8896L53.1404 74.2396ZM53.1404 74.2396L53.2803 79.8997C53.2803 81.7597 53.3904 83.5996 53.4104 85.4296L53.1404 85.1597C57.5504 85.1597 61.9603 84.9996 66.3803 84.9996L79.6204 84.9296L79.1204 85.4296V74.2396L79.5704 74.6897C77.3904 74.6897 75.2103 74.6896 73.0203 74.6296L66.4404 74.5196L53.1404 74.2396Z" fill="#EBEBEB"/>
<path d="M411.661 151.56L398.541 151.84L391.881 151.95C389.651 152 387.411 151.95 385.181 152.01H384.741V151.56L384.681 140.37V139.87H385.181L398.421 139.93C402.841 139.93 407.251 140.05 411.661 140.1H411.941V140.37C411.941 142.27 411.851 144.16 411.801 146.03L411.661 151.56ZM411.661 151.56L411.521 145.91C411.521 144.04 411.411 142.2 411.391 140.37L411.661 140.64C407.251 140.7 402.841 140.8 398.421 140.81L385.181 140.87L385.681 140.37L385.631 151.56L385.181 151.12C387.361 151.12 389.541 151.12 391.731 151.12L398.311 151.23L411.661 151.56Z" fill="#EBEBEB"/>
<path d="M682.09 337.27L668.97 337.54L662.31 337.66C660.08 337.66 657.84 337.66 655.61 337.66H655.17V337.22L655.11 326.03V325.52H655.61L668.85 325.58C673.26 325.58 677.68 325.69 682.09 325.74H682.37V326.01C682.37 327.9 682.29 329.79 682.24 331.66L682.09 337.27ZM682.09 337.27L681.95 331.61C681.9 329.75 681.84 327.91 681.82 326.08L682.09 326.35C677.68 326.35 673.26 326.51 668.85 326.51L655.61 326.58L656.11 326.08L656.06 337.27L655.61 336.82C657.79 336.82 659.97 336.82 662.16 336.87L668.74 336.99L682.09 337.27Z" fill="#EBEBEB"/>
<path d="M696.861 351.38L683.741 351.65L677.081 351.77C674.851 351.77 672.611 351.77 670.381 351.82H669.941V351.38L669.881 340.19V339.68H670.381L683.621 339.74C688.041 339.74 692.451 339.85 696.861 339.9H697.141V340.17C697.141 342.06 697.051 343.95 697.011 345.82L696.861 351.38ZM696.861 351.38L696.721 345.72C696.721 343.86 696.611 342.02 696.591 340.19L696.861 340.46C692.451 340.51 688.041 340.62 683.621 340.62L670.381 340.68L670.881 340.19V351.38L670.431 350.93C672.611 350.93 674.791 350.93 676.981 350.98L683.561 351.1L696.861 351.38Z" fill="#EBEBEB"/>
<path d="M94.6204 351.38L81.4904 351.65L74.8304 351.77C72.6004 351.77 70.3704 351.77 68.1404 351.82H67.6904V351.38V340.19V339.68H68.2004L81.4404 339.74C85.8504 339.74 90.2604 339.85 94.6804 339.9H94.9504V340.17C94.9504 342.06 94.8604 343.95 94.8204 345.82L94.6204 351.38ZM94.6204 351.38L94.4704 345.72C94.4704 343.86 94.3604 342.02 94.3404 340.19L94.6204 340.46C90.2004 340.51 85.7904 340.62 81.3804 340.62L68.1404 340.68L68.6304 340.19V351.38L68.1904 350.93C70.3704 350.93 72.5404 350.93 74.7304 350.98L81.3104 351.1L94.6204 351.38Z" fill="#EBEBEB"/>
<path d="M655.5 74.2396L668.62 73.9996L675.28 73.8896C677.51 73.8896 679.75 73.8896 681.98 73.8896H682.42V74.3396L682.48 85.5296V86.0296H682L668.76 85.9697C664.34 85.9697 659.93 85.8596 655.52 85.8096H655.24V85.5396C655.24 83.6396 655.33 81.7596 655.38 79.8896L655.5 74.2396ZM655.5 74.2396L655.64 79.8997C655.64 81.7597 655.75 83.5996 655.77 85.4296L655.5 85.1597C659.91 85.1597 664.32 84.9996 668.74 84.9996L682 84.9296L681.5 85.4296V74.2396L681.95 74.6897C679.77 74.6897 677.59 74.6896 675.4 74.6296L668.82 74.5196L655.5 74.2396Z" fill="#EBEBEB"/>
<path opacity="0.19" d="M306.03 96.17C317.324 96.17 326.48 87.0142 326.48 75.72C326.48 64.4258 317.324 55.27 306.03 55.27C294.736 55.27 285.58 64.4258 285.58 75.72C285.58 87.0142 294.736 96.17 306.03 96.17Z" fill="#EBEBEB"/>
<path opacity="0.19" d="M320.781 82.5904C322.719 74.4393 317.682 66.261 309.53 64.3237C301.379 62.3863 293.201 67.4235 291.264 75.5746C289.326 83.7257 294.364 91.904 302.515 93.8414C310.666 95.7787 318.844 90.7415 320.781 82.5904Z" fill="#EBEBEB"/>
<path d="M328.36 79.0898L314.23 103.17H297.83L283.69 79.0898H328.36Z" fill="#EBEBEB"/>
<path d="M318.07 111.28H294L297.83 103.17H314.23L318.07 111.28Z" fill="#EBEBEB"/>
<path d="M316.781 98.8198L314.231 103.17H297.821L295.891 99.8798L316.781 98.8198Z" fill="#C7C7C7"/>
<path opacity="0.19" d="M375.001 96.17C386.295 96.17 395.451 87.0142 395.451 75.72C395.451 64.4258 386.295 55.27 375.001 55.27C363.707 55.27 354.551 64.4258 354.551 75.72C354.551 87.0142 363.707 96.17 375.001 96.17Z" fill="#EBEBEB"/>
<path opacity="0.19" d="M381.468 92.8391C389.048 89.2692 392.298 80.2308 388.728 72.6512C385.158 65.0717 376.12 61.8212 368.54 65.3911C360.961 68.961 357.71 77.9994 361.28 85.5789C364.85 93.1585 373.889 96.4089 381.468 92.8391Z" fill="#EBEBEB"/>
<path d="M397.33 79.0898L383.2 103.17H366.8L352.67 79.0898H397.33Z" fill="#EBEBEB"/>
<path d="M387.041 111.28H362.971L366.801 103.17H383.201L387.041 111.28Z" fill="#EBEBEB"/>
<path d="M385.76 98.8198L383.2 103.17H366.8L364.86 99.8798L385.76 98.8198Z" fill="#C7C7C7"/>
<path opacity="0.19" d="M443.971 96.17C455.265 96.17 464.421 87.0142 464.421 75.72C464.421 64.4258 455.265 55.27 443.971 55.27C432.676 55.27 423.521 64.4258 423.521 75.72C423.521 87.0142 432.676 96.17 443.971 96.17Z" fill="#EBEBEB"/>
<path opacity="0.19" d="M454.696 89.8176C460.62 83.8934 460.62 74.2882 454.696 68.364C448.772 62.4397 439.167 62.4397 433.242 68.364C427.318 74.2883 427.318 83.8934 433.242 89.8176C439.167 95.7419 448.772 95.7419 454.696 89.8176Z" fill="#EBEBEB"/>
<path d="M466.311 79.0898L452.171 103.17H435.771L421.641 79.0898H466.311Z" fill="#EBEBEB"/>
<path d="M456.01 111.28H431.94L435.77 103.17H452.17L456.01 111.28Z" fill="#EBEBEB"/>
<path d="M454.73 98.8198L452.18 103.17H435.77L433.84 99.8798L454.73 98.8198Z" fill="#C7C7C7"/>
<path d="M364.77 468.34C516.913 468.34 640.25 456.185 640.25 441.19C640.25 426.196 516.913 414.04 364.77 414.04C212.627 414.04 89.29 426.196 89.29 441.19C89.29 456.185 212.627 468.34 364.77 468.34Z" fill="#EBEBEB"/>
<path d="M58.0801 372.01L137.31 371.77L216.54 371.68L375 371.51L533.46 371.68L612.69 371.76L691.92 372.01L612.69 372.25L533.46 372.34L375 372.51L216.54 372.34L137.31 372.25L58.0801 372.01Z" fill="#263238"/>
<path d="M631.099 284.94C632.244 289.111 633.001 293.38 633.359 297.69C633.239 297.9 633.259 298.69 633.359 298.48C633.359 299.18 634.449 299.05 634.449 298.36C634.449 297.91 634.449 297.46 634.449 297.02C636.939 293.93 640.559 292.02 643.449 289.28C645.8 287.165 647.514 284.436 648.399 281.4C650.819 273.04 648.549 264.18 651.469 255.84C653.979 248.65 658.469 242.4 662.309 235.84C666.309 228.95 669.309 221.71 669.609 213.64C669.849 207.46 669.109 199.23 664.409 194.64C659.409 189.73 653.239 193.41 649.409 197.79C638.339 210.5 633.219 226.56 631.139 242.98C629.999 252.07 628.819 261.22 629.139 270.39C629.31 275.293 629.966 280.167 631.099 284.94Z" fill="#68B8BE"/>
<path d="M633.309 301C632.704 292.423 632.804 283.811 633.609 275.25C633.609 275.25 633.609 275.25 633.609 275.15C633.469 268.15 632.919 261.26 633.189 254.29C633.531 246.752 634.559 239.261 636.259 231.91C636.265 231.897 636.274 231.886 636.285 231.878C636.297 231.87 636.31 231.866 636.324 231.866C636.338 231.866 636.352 231.87 636.364 231.878C636.375 231.886 636.384 231.897 636.389 231.91C635.033 239.132 634.224 246.446 633.969 253.79C633.829 257.717 633.859 261.65 634.059 265.59C634.129 266.87 634.249 268.15 634.329 269.44C637.21 249.918 644.26 231.245 654.999 214.69C655.139 214.46 655.539 214.69 655.399 214.94C647.719 227.533 642.031 241.238 638.539 255.57C643.869 245.7 651.909 237.57 657.879 228.11C657.879 228.06 657.999 228.11 657.969 228.11C652.609 238.67 643.749 246.99 638.109 257.39C637.129 261.63 636.336 265.903 635.729 270.21C634.934 276.114 634.506 282.062 634.449 288.02C637.689 281.96 641.059 276.16 643.709 269.75C643.779 269.58 644.029 269.69 643.969 269.86C641.709 276.53 638.679 283.7 634.429 289.38C634.429 293.6 634.529 297.82 634.779 302.03C635.439 313.27 637.359 324.36 638.249 335.57C638.256 335.639 638.235 335.708 638.191 335.761C638.147 335.815 638.083 335.848 638.014 335.855C637.945 335.862 637.877 335.841 637.823 335.797C637.77 335.752 637.736 335.689 637.729 335.62C635.479 324.193 634.002 312.626 633.309 301Z" fill="#263238"/>
<path d="M645.249 214.33C645.249 214.25 645.399 214.33 645.369 214.33C643.369 220.01 642.159 225.76 640.679 231.59C640.663 231.641 640.63 231.684 640.585 231.712C640.54 231.74 640.486 231.75 640.434 231.742C640.381 231.733 640.334 231.706 640.3 231.665C640.266 231.625 640.248 231.573 640.249 231.52C640.859 225.66 642.999 219.77 645.249 214.33Z" fill="#263238"/>
<path d="M593.099 238.13C594.472 241.46 596.051 244.699 597.83 247.83C601.52 254.54 605.38 260.7 606.08 268.51C606.39 272 606.5 275.51 607.57 278.88C608.539 281.776 609.93 284.512 611.7 287C615.7 292.84 620.699 297.87 624.429 303.92C628.287 310.242 631.141 317.124 632.89 324.32C632.98 324.71 633.599 324.61 633.499 324.22C633.499 324.22 633.499 324.16 633.499 324.13C633.509 324.101 633.509 324.07 633.499 324.04C634.089 307.28 632.75 290.38 627.63 274.32C625.375 267.258 622.663 260.35 619.51 253.64C616.77 247.82 613.36 242.22 608.51 237.87C605.39 235.06 598.619 229.73 594.179 232.55C592.109 233.89 592.259 236 593.099 238.13Z" fill="#68B8BE"/>
<path d="M609.999 276.13C612.957 280.993 616.213 285.669 619.749 290.13C621.369 292.25 623.019 294.35 624.639 296.47C625.399 297.47 626.259 298.47 626.959 299.55C626.519 297.78 626.089 296.02 625.639 294.26C623.479 285.79 621.399 277.26 618.169 269.1C614.872 261.21 610.981 253.581 606.529 246.28C606.419 246.08 606.729 245.94 606.849 246.13C610.389 251.96 613.989 257.78 616.959 263.92C618.608 267.345 620.044 270.868 621.259 274.47C619.891 266.827 617.979 259.291 615.539 251.92C615.539 251.86 615.609 251.81 615.639 251.87C618.841 259.328 620.843 267.246 621.569 275.33C622.302 277.497 622.969 279.693 623.569 281.92C626.209 291.3 628.569 300.77 630.679 310.28C630.691 304.045 630.129 297.822 628.999 291.69C628.999 291.661 629.011 291.633 629.031 291.612C629.052 291.592 629.08 291.58 629.109 291.58C629.138 291.58 629.166 291.592 629.187 291.612C629.207 291.633 629.219 291.661 629.219 291.69C630.855 298.107 631.402 304.752 630.839 311.35C631.649 314.96 632.449 318.59 633.219 322.21C634.869 329.94 636.889 337.8 637.849 345.65C637.849 345.85 637.599 345.89 637.539 345.7C636.389 341.47 635.699 337.09 634.759 332.8C633.819 328.51 632.839 324.22 631.839 319.94C630.389 313.7 628.839 307.48 627.309 301.26C626.309 298.98 624.259 296.96 622.759 295.05C621.109 292.95 619.459 290.86 617.849 288.73C614.838 284.785 612.143 280.609 609.789 276.24C609.759 276.11 609.899 276 609.999 276.13Z" fill="#263238"/>
<path d="M609.239 269C612.921 273.714 616.114 278.79 618.769 284.15C618.769 284.22 618.699 284.29 618.659 284.22C615.449 279.22 612.289 274.13 609.089 269.1C608.999 269 609.179 268.88 609.239 269Z" fill="#263238"/>
<path d="M680.61 254C678.43 257.74 675.95 262.24 676.89 266.73C677.48 269.57 679.56 271.88 679.89 274.78C680.74 281.19 674.35 285.42 669.74 288.44C658.23 296 642.44 302.73 640.34 318.16C640.26 318.7 639.34 318.57 639.34 318.03C639.335 317.997 639.335 317.963 639.34 317.93C639.34 317.93 639.28 317.88 639.28 317.84C637.772 310.051 637.847 302.039 639.5 294.28C641.22 286.33 644.69 279.19 648.78 272.2C655.71 260.38 663.05 248.28 673.52 239.2C676.42 236.7 682.36 232.2 684.67 237.85C686.98 243.5 683.27 249.46 680.61 254Z" fill="#68B8BE"/>
<path d="M670.069 279.08C662.439 287.34 650.299 291.97 643.729 301.23C647.629 287.04 654.069 274.29 663.969 263.23C664.012 263.172 664.033 263.101 664.028 263.029C664.023 262.957 663.992 262.889 663.941 262.838C663.89 262.787 663.822 262.756 663.75 262.751C663.678 262.746 663.607 262.767 663.549 262.81C656.523 269.63 650.901 277.759 646.999 286.74C648.813 280.466 651.196 274.371 654.119 268.53C654.229 268.3 653.919 268.11 653.789 268.33C650.165 274.709 647.573 281.621 646.109 288.81C637.449 309.76 636.649 334.34 638.469 356.43C638.469 356.75 638.969 356.75 638.959 356.43C638.469 339.02 638.749 321.31 642.959 304.31L643.229 303.25C650.379 293.25 662.459 288.67 670.229 279.25C670.279 279.12 670.149 279 670.069 279.08Z" fill="#263238"/>
<path d="M671.84 272C667.84 275.68 663.84 279.44 659.84 283.11C659.84 283.11 659.84 283.22 659.9 283.19C664.442 280.126 668.532 276.44 672.05 272.24C672.21 272.06 672 271.83 671.84 272Z" fill="#263238"/>
<path d="M672.469 256.06C668.923 261.873 664.909 267.388 660.469 272.55C660.409 272.61 660.469 272.71 660.569 272.65C665.546 267.918 669.646 262.342 672.679 256.18C672.683 256.155 672.679 256.128 672.667 256.105C672.656 256.081 672.638 256.062 672.615 256.049C672.592 256.036 672.566 256.03 672.54 256.032C672.514 256.034 672.49 256.044 672.469 256.06Z" fill="#263238"/>
<path d="M654.43 372.01H619.34L624.07 324.79H649.03L654.43 372.01Z" fill="#455A64"/>
<path d="M649.909 332.47H623.289L624.069 324.79H649.029L649.909 332.47Z" fill="#263238"/>
<path d="M653.339 319.56H620.439V327.1H653.339V319.56Z" fill="#455A64"/>
<path d="M498.64 430.44C496.42 431.89 435.71 432.65 433.64 431.99C431.57 431.33 433.31 425.41 435.56 423.58C437.81 421.75 460.15 411.39 460.15 411.39L459.15 402.31C469.74 401.99 487.15 401.38 497.2 401.03C498.2 415.5 499.07 430.17 498.64 430.44Z" fill="#EBEBEB"/>
<path d="M432.921 432.4C435.071 433.04 496.741 432.51 499.011 430.96C499.881 430.38 497.741 408.96 497.741 408.84L459.971 409.75V410.42C459.971 410.42 437.021 421.64 434.701 423.61C432.381 425.58 430.771 431.76 432.921 432.4Z" fill="#68B8BE"/>
<path d="M433.53 430C443.79 429.4 485.22 427.93 495.41 428.11C495.49 428.11 495.49 428.17 495.41 428.18C485.26 429 443.81 430.13 433.53 430.18C433.32 430.18 433.31 430 433.53 430Z" fill="#263238"/>
<path d="M456.71 410.65C460.71 409.75 465.71 410.21 468.87 412.98C468.99 413.09 468.87 413.26 468.71 413.22C464.796 412.102 460.773 411.412 456.71 411.16C456.651 411.148 456.598 411.117 456.56 411.07C456.522 411.024 456.501 410.965 456.501 410.905C456.501 410.845 456.522 410.787 456.56 410.74C456.598 410.694 456.651 410.662 456.71 410.65Z" fill="#263238"/>
<path d="M453.851 412.5C457.851 411.61 462.851 412.06 466.011 414.84C466.141 414.94 466.011 415.12 465.851 415.08C461.936 413.964 457.913 413.27 453.851 413.01C453.792 412.999 453.739 412.967 453.701 412.92C453.662 412.874 453.642 412.816 453.642 412.755C453.642 412.695 453.662 412.637 453.701 412.59C453.739 412.544 453.792 412.512 453.851 412.5Z" fill="#263238"/>
<path d="M451 414.36C455 413.47 460 413.92 463.17 416.69C463.29 416.8 463.17 416.97 463 416.94C459.086 415.822 455.063 415.128 451 414.87C450.941 414.858 450.888 414.826 450.85 414.78C450.812 414.733 450.791 414.675 450.791 414.615C450.791 414.555 450.812 414.497 450.85 414.45C450.888 414.404 450.941 414.372 451 414.36Z" fill="#263238"/>
<path d="M457.891 411.09H500.131C500.131 411.09 494.401 312.22 494.741 310.49C495.161 308.29 518.931 203.82 518.931 203.82H483.131C483.131 203.82 453.681 300.71 452.551 310.07C450.721 325.18 457.891 411.09 457.891 411.09Z" fill="#263238"/>
<path d="M459.121 403.39C465.571 403.26 463.721 403.21 470.171 403.15C473.331 403.15 494.081 402.93 497.031 403.42C497.044 403.426 497.055 403.434 497.062 403.446C497.07 403.458 497.075 403.471 497.075 403.485C497.075 403.499 497.07 403.513 497.062 403.525C497.055 403.536 497.044 403.545 497.031 403.55C494.081 404.04 473.331 403.86 470.171 403.83C463.721 403.77 465.571 403.72 459.121 403.58C459.101 403.574 459.083 403.561 459.071 403.544C459.058 403.527 459.052 403.506 459.052 403.485C459.052 403.464 459.058 403.444 459.071 403.427C459.083 403.41 459.101 403.397 459.121 403.39Z" fill="#37474F"/>
<path d="M512.751 212.65C509.411 224.55 506.501 236.58 503.471 248.56C500.441 260.54 497.471 272.56 494.421 284.56C492.941 290.46 491.331 296.33 490.051 302.27C488.852 308.174 488.419 314.206 488.761 320.22C489.271 332.57 489.931 344.91 490.531 357.22C491.131 369.53 491.791 381.92 492.531 394.22C492.621 395.77 492.721 397.31 492.811 398.85C492.811 398.96 492.981 398.95 492.971 398.85C492.051 374.144 490.971 349.444 489.731 324.75C489.431 318.56 489.051 312.35 490.001 306.21C490.901 300.38 492.551 294.68 494.001 288.98C497.021 276.98 500.021 264.98 503.001 252.98C506.361 239.55 509.891 226.14 512.891 212.63C512.881 212.621 512.869 212.614 512.856 212.61C512.843 212.606 512.829 212.604 512.816 212.606C512.802 212.608 512.789 212.613 512.778 212.621C512.767 212.629 512.757 212.639 512.751 212.65Z" fill="#37474F"/>
<path d="M574.351 432C572.281 432.67 521.281 432 519.051 430.59C518.181 430.05 517.761 421.46 517.551 411.05V410.72C517.551 410.27 517.291 408.29 516.881 405.44L554.881 406.07L555.551 411.29C555.551 411.29 570.091 421.69 572.371 423.55C574.651 425.41 576.411 431.31 574.351 432Z" fill="#DBDBDB"/>
<path d="M576.25 433.31C574.1 433.99 520.99 433.43 518.7 431.91C517.82 431.35 517.45 410.7 517.45 410.59H555.58L555.75 411.21C555.75 411.21 571.97 422.59 574.31 424.53C576.65 426.47 578.39 432.65 576.25 433.31Z" fill="#68B8BE"/>
<path d="M575.6 430.94C565.34 430.48 530.24 429.51 520.05 429.84C519.97 429.84 519.97 429.9 520.05 429.9C530.22 430.58 565.32 431.21 575.6 431.11C575.82 431.1 575.82 431 575.6 430.94Z" fill="#263238"/>
<path d="M555.311 412.9C551.521 411.29 546.561 410.82 542.921 412.96C542.781 413.04 542.921 413.24 543.041 413.23C547.082 412.852 551.152 412.909 555.181 413.4C555.244 413.409 555.308 413.394 555.361 413.359C555.415 413.323 555.453 413.27 555.469 413.208C555.485 413.146 555.478 413.081 555.449 413.024C555.419 412.967 555.37 412.923 555.311 412.9Z" fill="#263238"/>
<path d="M557.771 415.26C553.991 413.64 549.031 413.17 545.391 415.31C545.251 415.39 545.391 415.59 545.501 415.58C549.545 415.202 553.619 415.259 557.651 415.75C557.709 415.75 557.765 415.73 557.811 415.694C557.856 415.658 557.888 415.608 557.902 415.552C557.916 415.495 557.91 415.436 557.887 415.383C557.863 415.33 557.822 415.287 557.771 415.26Z" fill="#263238"/>
<path d="M560.241 417.61C556.461 415.99 551.49 415.52 547.85 417.66C547.71 417.74 547.85 417.94 547.97 417.93C552.012 417.552 556.082 417.609 560.111 418.1C560.169 418.102 560.227 418.084 560.275 418.049C560.322 418.014 560.356 417.964 560.371 417.907C560.386 417.85 560.381 417.79 560.358 417.736C560.334 417.682 560.293 417.637 560.241 417.61Z" fill="#263238"/>
<path d="M487.65 203.82C487.65 203.82 493.08 236.91 493.45 237.97C493.45 237.97 495.45 238.97 499.11 240.61L514.7 410.92L557.14 411.09L537.83 238.31C537.83 238.31 540.58 213.16 533.98 203.82H487.65Z" fill="#263238"/>
<path d="M515.9 403.26C522.38 403.16 520.52 403.09 527.01 403.06C530.18 403.06 551.01 402.95 554.01 403.45C554.07 403.45 554.07 403.58 554.01 403.59C551.01 404.06 530.19 403.79 527.01 403.75C520.53 403.66 522.39 403.61 515.91 403.45C515.89 403.445 515.872 403.433 515.858 403.416C515.845 403.4 515.837 403.38 515.836 403.359C515.835 403.338 515.841 403.317 515.852 403.299C515.864 403.281 515.88 403.268 515.9 403.26Z" fill="#37474F"/>
<path d="M491.69 236.94C495.909 238.708 499.967 240.836 503.82 243.3C503.853 243.318 503.878 243.347 503.89 243.383C503.901 243.419 503.898 243.457 503.88 243.49C503.863 243.524 503.833 243.548 503.798 243.56C503.762 243.571 503.723 243.568 503.69 243.55C499.6 241.55 495.42 239.65 491.44 237.43C491.389 237.39 491.353 237.334 491.339 237.27C491.325 237.207 491.333 237.14 491.363 237.082C491.392 237.024 491.441 236.978 491.501 236.952C491.561 236.926 491.628 236.922 491.69 236.94Z" fill="#37474F"/>
<path d="M493.251 218C493.921 222 494.251 226 494.731 230L495.061 232.87C495.083 233.753 495.316 234.617 495.741 235.39C496.611 236.72 498.151 237.39 499.541 237.96C499.576 237.971 499.607 237.995 499.624 238.028C499.642 238.061 499.646 238.099 499.636 238.135C499.625 238.171 499.601 238.201 499.568 238.219C499.535 238.237 499.496 238.241 499.461 238.23C497.969 237.864 496.593 237.128 495.461 236.09C494.191 234.75 494.231 232.71 494.031 230.98C493.466 226.692 493.156 222.375 493.101 218.05C493.103 218.034 493.111 218.019 493.121 218.007C493.132 217.995 493.145 217.986 493.161 217.981C493.176 217.976 493.193 217.975 493.208 217.978C493.224 217.982 493.239 217.989 493.251 218Z" fill="#37474F"/>
<path d="M498.06 219.21C498.2 222.06 498.52 224.91 498.76 227.75C498.88 229.16 498.97 230.57 499.06 231.97C499.15 233.37 499.31 234.87 499.27 236.3C499.27 236.324 499.261 236.347 499.244 236.364C499.227 236.381 499.204 236.39 499.18 236.39C499.157 236.39 499.134 236.381 499.117 236.364C499.1 236.347 499.09 236.324 499.09 236.3C498.86 234.94 498.83 233.53 498.72 232.17C498.61 230.81 498.5 229.28 498.42 227.84C498.26 224.96 498.18 222.06 497.92 219.18C497.91 219.11 498.06 219.11 498.06 219.21Z" fill="#37474F"/>
<path d="M501.74 264.17C501.27 259.17 500.84 254.17 500.27 249.17C499.95 246.37 499.7 243.55 499.27 240.77C499.27 240.51 498.81 240.58 498.82 240.84C498.93 245.84 499.53 250.84 500.01 255.84C500.49 260.84 500.91 265.84 501.57 270.84C501.95 273.66 502.36 276.47 502.69 279.3C502.69 279.4 502.86 279.4 502.85 279.3C502.42 274.26 502.21 269.21 501.74 264.17Z" fill="#37474F"/>
<path d="M540.001 363.45C538.547 352.29 537.111 341.13 535.691 329.97C532.861 307.64 530.191 285.29 527.501 262.97C525.991 250.43 524.411 237.9 522.951 225.35C522.951 225.27 522.821 225.27 522.831 225.35C524.921 247.86 527.171 270.35 529.831 292.8C532.491 315.25 535.331 337.48 538.421 359.8C540.151 372.33 541.851 384.87 544.071 397.32C544.071 397.344 544.08 397.367 544.097 397.384C544.114 397.401 544.137 397.41 544.161 397.41C544.184 397.41 544.207 397.401 544.224 397.384C544.241 397.367 544.251 397.344 544.251 397.32C543.001 386 541.441 374.7 540.001 363.45Z" fill="#37474F"/>
<path d="M489.671 149.05C490.281 164.6 487.151 187.38 485.851 195.37C484.411 204.25 471.191 221.09 459.851 231.77C457.381 234.1 440.331 213.37 442.561 210.51C447.781 203.8 462.051 193.35 464.821 188.39C466.611 185.17 474.211 161.69 478.721 150.39C484.651 135.61 489.391 141.79 489.671 149.05Z" fill="#F7A9A0"/>
<path d="M459.85 231.77C457.3 233.84 443.27 244.04 439.26 245.61C435.25 247.18 423.39 250.84 421.88 247.89C420.37 244.94 423.76 243.59 423.76 243.59C423.76 243.59 418.5 244.35 417.26 241.24C416.02 238.13 421.34 236.24 421.34 236.24C421.34 236.24 415.89 236.62 414.87 233.43C413.85 230.24 419.54 229.2 419.54 229.2C419.54 229.2 414.54 229.78 414.83 226.8C415.14 223.22 424.42 223.18 428.72 221.12C429.72 220.65 447.82 210.24 447.82 210.24L459.85 231.77Z" fill="#F7A9A0"/>
<path d="M419.051 229.27C425.871 229.27 428.851 228.03 434.511 224.41C434.621 224.34 434.751 224.48 434.641 224.57C429.431 228.62 425.911 230.66 419.031 229.57C418.701 229.55 418.721 229.27 419.051 229.27Z" fill="#263238"/>
<path d="M420.8 236.2C427.89 235.54 431.13 234.26 437.34 230.9C437.42 230.9 437.51 231 437.43 231.06C431.62 234.86 428.06 236.82 420.89 236.55C420.57 236.54 420.48 236.23 420.8 236.2Z" fill="#263238"/>
<path d="M424.07 243.41C430.88 242.27 434.5 241.03 440.07 237C440.21 236.9 440.36 237.09 440.23 237.19C434.92 241.86 430.42 243.45 424.1 243.61C423.69 243.63 423.64 243.48 424.07 243.41Z" fill="#263238"/>
<path d="M435.171 241.65H418.511L417.511 210.51H436.171L435.171 241.65Z" fill="#EBEBEB"/>
<path opacity="0.5" d="M436.941 243.58H416.741L415.521 205.81H438.161L436.941 243.58Z" fill="#EBEBEB"/>
<path d="M451.531 208.06C451.531 208.06 443.111 206.56 439.261 206.72C435.411 206.88 421.311 212.72 422.411 215.86C423.821 219.86 432.631 218.11 436.831 216.67C436.831 216.67 440.091 225.99 446.691 226.08C453.291 226.17 451.531 208.06 451.531 208.06Z" fill="#F7A9A0"/>
<path d="M423.161 216.84C427.091 219.59 432.491 217.35 436.671 216.26C436.731 216.241 436.795 216.236 436.857 216.247C436.919 216.257 436.978 216.283 437.028 216.321C437.078 216.36 437.118 216.41 437.145 216.467C437.172 216.524 437.184 216.587 437.181 216.65C438.811 220.47 442.181 225.38 446.501 226.27C446.527 226.27 446.553 226.281 446.572 226.3C446.59 226.318 446.601 226.344 446.601 226.37C446.601 226.397 446.59 226.422 446.572 226.441C446.553 226.46 446.527 226.47 446.501 226.47C441.781 226.13 438.041 221.59 436.501 217.29C432.231 218.48 426.731 220.49 423.141 216.88C423.111 216.86 423.131 216.83 423.161 216.84Z" fill="#263238"/>
<path d="M445.381 204.71L463.701 230.71C463.701 230.71 483.701 210.24 486.841 200.04C489.981 189.84 489.631 174.93 489.761 154.04C489.891 133.15 481.271 141.29 477.401 152.4C473.881 162.54 464.511 187.24 464.071 188.08C463.631 188.92 445.381 204.71 445.381 204.71Z" fill="#EBEBEB"/>
<path d="M468.13 223.67C465.56 219.67 462.74 215.91 459.94 212.1C457.14 208.29 454.27 204.56 451.26 200.96C451.18 200.87 451.07 200.96 451.13 201.07C453.7 205.07 456.44 208.91 459.25 212.71C462.06 216.51 464.83 220.31 467.86 223.92C468 224.11 468.26 223.87 468.13 223.67Z" fill="#263238"/>
<path d="M479.44 214.48C480.44 215.38 537.84 208.84 538.11 208.48C538.82 207.38 517.25 147.29 502.62 138.11C499.47 136.11 488.49 137.78 487.04 138.55C485.41 139.41 481.51 148.2 480.04 155.14C477.23 169 478.54 213.68 479.44 214.48Z" fill="#EBEBEB"/>
<path d="M534.45 197L512.05 208.69L492.67 198.57L479 211.6C478.19 201.6 477.59 167.05 480 155.09C480.836 151.255 482.062 147.515 483.66 143.93C484.25 142.76 484.66 141.99 484.66 141.99L489.22 163.54L502.06 137.7C513.51 144.66 527.82 178.94 534.45 197Z" fill="#263238"/>
<path d="M491.001 181.1C490.794 178.507 490.574 175.924 490.341 173.35C490.241 172.08 490.131 170.81 490.031 169.53C489.931 168.25 489.761 166.82 489.631 165.47H489.551C489.551 166.83 489.551 168.18 489.551 169.55C489.551 170.92 489.631 172.09 489.681 173.36C489.781 175.99 489.921 178.62 490.121 181.25C490.521 186.43 491.061 191.61 491.971 196.73C491.971 196.754 491.98 196.777 491.997 196.794C492.014 196.811 492.037 196.82 492.061 196.82C492.085 196.82 492.108 196.811 492.124 196.794C492.141 196.777 492.151 196.754 492.151 196.73C491.911 191.5 491.441 186.3 491.001 181.1Z" fill="#37474F"/>
<path d="M496.681 191.1C496.681 191.373 496.6 191.64 496.448 191.867C496.297 192.094 496.081 192.271 495.829 192.375C495.577 192.48 495.299 192.507 495.032 192.454C494.764 192.4 494.518 192.269 494.325 192.076C494.132 191.883 494.001 191.637 493.947 191.369C493.894 191.102 493.922 190.824 494.026 190.572C494.13 190.32 494.307 190.104 494.534 189.953C494.761 189.801 495.028 189.72 495.301 189.72C495.482 189.719 495.663 189.754 495.831 189.823C495.999 189.891 496.151 189.993 496.28 190.121C496.408 190.25 496.51 190.403 496.579 190.571C496.647 190.739 496.682 190.919 496.681 191.1Z" fill="#37474F"/>
<path d="M495.93 181.37C495.93 181.641 495.85 181.906 495.7 182.131C495.549 182.356 495.335 182.532 495.085 182.636C494.834 182.739 494.559 182.767 494.293 182.714C494.027 182.661 493.783 182.53 493.592 182.339C493.4 182.147 493.27 181.903 493.217 181.637C493.164 181.372 493.191 181.096 493.295 180.846C493.398 180.595 493.574 180.381 493.799 180.231C494.025 180.08 494.289 180 494.56 180C494.74 180 494.918 180.035 495.085 180.104C495.251 180.173 495.402 180.274 495.529 180.401C495.656 180.528 495.757 180.68 495.826 180.846C495.895 181.012 495.93 181.19 495.93 181.37Z" fill="#37474F"/>
<path d="M495.191 171.64C495.193 171.914 495.113 172.182 494.962 172.41C494.811 172.639 494.596 172.817 494.343 172.923C494.091 173.029 493.813 173.057 493.544 173.004C493.275 172.951 493.028 172.819 492.835 172.626C492.641 172.432 492.51 172.185 492.457 171.917C492.404 171.648 492.432 171.37 492.538 171.117C492.643 170.865 492.822 170.649 493.05 170.498C493.279 170.348 493.547 170.268 493.821 170.27C494.184 170.27 494.532 170.414 494.789 170.671C495.046 170.928 495.191 171.277 495.191 171.64Z" fill="#37474F"/>
<path d="M503.62 150.19C509.9 161.24 526.891 194.72 541.341 194.7C551.571 194.7 578.08 153.46 580.43 148.19C582.35 143.87 554.981 135.36 553.631 138.19C550.841 144.07 542.911 159.27 539.341 162.34C536.961 164.34 519.2 146.34 508.43 139.73C499.19 134.08 498.94 142 503.62 150.19Z" fill="#F7A9A0"/>
<path d="M588.331 139.15C591.001 138 611.261 137.4 611.251 133C611.241 128.6 585.421 129.83 585.421 129.83L588.331 139.15Z" fill="#F7A9A0"/>
<path d="M551.49 146.81C550.85 139.43 556.07 130.5 559.15 129.63C561.29 129.03 584.26 130.02 587.85 129.8C591.44 129.58 604.25 129.91 604.55 133.06C604.96 137.51 590.71 137.69 588.33 139.15C585.95 140.61 578.15 152 578.15 152L551.49 146.81Z" fill="#F7A9A0"/>
<path d="M604.88 133.12C604.657 132.296 604.137 131.584 603.42 131.12C601.85 130.02 599.78 129.93 597.93 129.78C595.134 129.522 592.321 129.499 589.52 129.71C589.45 129.71 589.45 129.81 589.52 129.81C591.62 129.81 593.72 129.81 595.81 130.04C597.733 130.118 599.642 130.41 601.5 130.91C602.338 131.134 603.097 131.588 603.69 132.22C603.902 132.443 604.052 132.716 604.128 133.014C604.203 133.312 604.2 133.624 604.12 133.92C603.51 135.86 599.69 136.43 597.93 136.83C595.62 137.34 593.23 137.83 590.93 138.27C590.83 138.27 590.93 138.44 590.98 138.42C593.38 137.95 595.92 137.76 598.34 137.33C600.34 136.97 602.34 136.57 603.98 135.27C604.317 135.033 604.581 134.705 604.74 134.325C604.899 133.945 604.948 133.527 604.88 133.12Z" fill="#263238"/>
<path d="M551.73 141.43L576.091 162.29C576.091 162.29 553.98 195.09 540.67 195.65C527.36 196.21 509.341 163.26 503.761 152.14C498.181 141.02 497.911 131.66 513.201 142.45C528.491 153.24 537.881 161.52 538.801 161.36C539.721 161.2 551.73 141.43 551.73 141.43Z" fill="#EBEBEB"/>
<path d="M571.001 166.91C567.611 163.59 564.001 160.51 560.471 157.41C556.941 154.31 553.291 151.29 549.561 148.41C549.471 148.34 549.381 148.48 549.461 148.55C552.841 151.87 556.361 155.04 559.931 158.14C563.501 161.24 567.041 164.33 570.781 167.19C571.001 167.36 571.131 167.07 571.001 166.91Z" fill="#263238"/>
<path d="M545.632 129.983L620.312 129.853L620.304 125.733L545.624 125.863L545.632 129.983Z" fill="#C7C7C7"/>
<path d="M607.361 125.81H589.311C588.451 125.81 589.311 96.1003 589.311 93.0603C589.311 90.0203 595.751 80.3103 595.751 78.5903V61.5903H600.911V78.5903C600.911 80.3103 607.361 90.0303 607.361 93.0603C607.361 96.0903 608.211 125.81 607.361 125.81Z" fill="#68B8BE"/>
<path d="M607.731 106.14H588.931V119.77H607.731V106.14Z" fill="#455A64"/>
<path d="M600.35 59.4302H596.32V61.5502H600.35V59.4302Z" fill="#455A64"/>
<path d="M576.3 79.4399C576.3 98.4399 576.3 104.25 571.18 104.25C566.06 104.25 566.07 98.4799 566.07 79.4399H576.3Z" fill="#EBEBEB"/>
<path d="M571.901 100.52H570.461V123.95H571.901V100.52Z" fill="#EBEBEB"/>
<path d="M579.18 125.87H563.19L571.18 123.48L579.18 125.87Z" fill="#EBEBEB"/>
<path d="M560.31 79.4399C560.31 98.4399 560.31 104.25 555.19 104.25C550.07 104.25 550.08 98.4799 550.08 79.4399H560.31Z" fill="#EBEBEB"/>
<path d="M555.911 100.52H554.471V123.95H555.911V100.52Z" fill="#EBEBEB"/>
<path d="M563.19 125.87H547.2L555.19 123.48L563.19 125.87Z" fill="#EBEBEB"/>
<path d="M489.81 147.23C492.12 147.34 497.92 143.32 499.6 138.97C499.207 136.709 498.7 134.47 498.08 132.26C497.59 130.12 497.08 127.71 496.79 125.49C496.74 125.03 483.28 130.73 483.28 130.73C484.446 133.408 485.279 136.219 485.76 139.1C485.79 139.406 485.79 139.714 485.76 140.02V140.18C485.74 142 486.68 147.09 489.81 147.23Z" fill="#F7A9A0"/>
<path d="M485.79 140.18C486.273 140.183 486.755 140.143 487.23 140.06C494.54 138.93 495.98 129.62 496.23 125.57C493.72 126.29 483.23 130.73 483.23 130.73C484.396 133.408 485.229 136.219 485.71 139.1C485.74 139.406 485.74 139.714 485.71 140.02C485.731 140.076 485.758 140.13 485.79 140.18Z" fill="#263238"/>
<path d="M494.42 107.45C497.24 111.85 498.6 126.45 496.05 130.51C492.35 136.39 484.36 139.1 478.87 134.21C473.55 129.47 472.11 110.41 475.14 106.53C479.6 100.8 490.26 101 494.42 107.45Z" fill="#F7A9A0"/>
<path d="M483.631 119.3C483.631 119.3 483.711 119.3 483.711 119.38C483.781 120.38 484.021 121.48 484.941 121.72C483.841 121.73 483.531 120.24 483.631 119.3Z" fill="#263238"/>
<path d="M484.41 118.18C485.98 117.91 486.41 121.07 484.96 121.32C483.51 121.57 483.09 118.41 484.41 118.18Z" fill="#263238"/>
<path d="M478 119.81C478 119.81 477.93 119.87 477.94 119.91C478.11 120.91 478.13 122.02 477.29 122.47C478.35 122.22 478.3 120.71 478 119.81Z" fill="#263238"/>
<path d="M477.001 118.91C475.411 119.01 475.721 122.18 477.191 122.09C478.661 122 478.301 118.83 477.001 118.91Z" fill="#263238"/>
<path d="M485.391 116.42C484.955 116.445 484.517 116.445 484.081 116.42C483.618 116.485 483.148 116.386 482.751 116.14C482.639 116.041 482.564 115.908 482.537 115.761C482.509 115.614 482.532 115.463 482.601 115.33C482.774 115.089 483.007 114.899 483.278 114.778C483.548 114.657 483.846 114.609 484.141 114.64C484.752 114.617 485.35 114.82 485.821 115.21C485.912 115.307 485.975 115.426 486.003 115.557C486.031 115.687 486.022 115.822 485.977 115.947C485.933 116.072 485.854 116.183 485.751 116.266C485.647 116.35 485.523 116.403 485.391 116.42Z" fill="#263238"/>
<path d="M475.27 117.54C475.689 117.416 476.1 117.265 476.5 117.09C476.956 116.997 477.368 116.754 477.67 116.4C477.742 116.269 477.769 116.12 477.75 115.972C477.73 115.825 477.663 115.687 477.56 115.58C477.317 115.407 477.033 115.302 476.736 115.276C476.439 115.25 476.14 115.303 475.87 115.43C475.283 115.599 474.781 115.98 474.46 116.5C474.394 116.623 474.365 116.763 474.377 116.902C474.388 117.041 474.44 117.174 474.526 117.284C474.612 117.395 474.728 117.478 474.86 117.523C474.992 117.568 475.135 117.574 475.27 117.54Z" fill="#263238"/>
<path d="M484.37 125.25C484.178 125.669 483.901 126.044 483.557 126.35C483.213 126.656 482.808 126.888 482.37 127.03C481.988 127.169 481.586 127.243 481.18 127.25C481.104 127.26 481.026 127.26 480.95 127.25H480.73C480.61 127.25 480.54 127.16 480.5 127.05C480.495 127.017 480.495 126.983 480.5 126.95V126.86C480.38 126.11 480.3 124.96 480.3 124.96C480.04 125.13 478.72 125.96 478.69 125.56C478.312 122.152 478.278 118.715 478.59 115.3C478.597 115.28 478.609 115.263 478.626 115.25C478.643 115.238 478.664 115.231 478.685 115.231C478.706 115.231 478.727 115.238 478.744 115.25C478.761 115.263 478.773 115.28 478.78 115.3C479.15 118.45 478.96 121.64 479.28 124.81C479.746 124.504 480.255 124.268 480.79 124.11C480.9 124.11 480.91 126.35 480.99 126.68C481.617 126.655 482.233 126.505 482.801 126.239C483.369 125.972 483.879 125.596 484.3 125.13C484.33 125.1 484.42 125.16 484.37 125.25Z" fill="#263238"/>
<path d="M481.591 126.93C482.098 127.388 482.715 127.708 483.381 127.86C483.749 127.931 484.13 127.886 484.471 127.73C485.211 127.38 485.101 126.67 484.841 126.08C484.701 125.771 484.527 125.479 484.321 125.21C483.619 126.061 482.662 126.665 481.591 126.93Z" fill="#263238"/>
<path d="M483.381 127.86C483.749 127.931 484.13 127.886 484.471 127.73C485.211 127.38 485.101 126.67 484.841 126.08C484.435 126.173 484.071 126.398 483.807 126.72C483.542 127.043 483.393 127.444 483.381 127.86Z" fill="#FF9ABB"/>
<path d="M473.441 111.87C479.061 114.96 485.731 108.79 485.731 108.79C486.298 109.886 487.204 110.77 488.314 111.31C489.423 111.85 490.678 112.019 491.891 111.79C491.891 111.79 493.801 120.6 496.151 120.35C499.731 119.98 499.631 107.72 498.271 105.44C496.911 103.16 493.811 102.85 493.811 102.85C493.321 101.449 492.316 100.287 491.001 99.6C488.371 97.97 480.181 101.32 480.181 101.32C479.588 100.24 478.748 99.3147 477.731 98.62C477.487 98.4463 477.21 98.3237 476.917 98.2597C476.624 98.1957 476.322 98.1916 476.027 98.2476C475.733 98.3037 475.453 98.4187 475.205 98.5859C474.956 98.753 474.744 98.9687 474.581 99.22C475.095 99.8353 475.461 100.561 475.651 101.34C476.331 103.9 474.201 104.11 473.991 101.74C473.874 100.856 474.084 99.9602 474.581 99.22C473.371 97.78 471.581 97.45 470.651 98.38C468.931 100.07 468.771 109.3 473.441 111.87Z" fill="#263238"/>
<path d="M494.631 119.61C494.631 119.61 496.631 114.27 498.961 114.87C501.291 115.47 500.621 122.62 498.451 124.14C498.186 124.354 497.88 124.513 497.552 124.606C497.224 124.699 496.881 124.724 496.543 124.681C496.205 124.638 495.879 124.528 495.585 124.356C495.29 124.184 495.034 123.954 494.831 123.68L494.631 119.61Z" fill="#F7A9A0"/>
<path d="M498.71 116.91C498.71 116.91 498.77 116.91 498.71 116.98C498.037 117.565 497.494 118.285 497.117 119.093C496.74 119.901 496.536 120.779 496.52 121.67C496.574 121.476 496.669 121.296 496.8 121.143C496.93 120.99 497.092 120.866 497.275 120.782C497.457 120.697 497.656 120.653 497.857 120.653C498.058 120.653 498.257 120.696 498.44 120.78C498.453 120.78 498.466 120.785 498.475 120.795C498.485 120.804 498.49 120.817 498.49 120.83C498.49 120.843 498.485 120.856 498.475 120.866C498.466 120.875 498.453 120.88 498.44 120.88C498.114 120.865 497.791 120.954 497.518 121.134C497.245 121.313 497.036 121.575 496.92 121.88C496.714 122.376 496.564 122.892 496.47 123.42C496.47 123.59 496.14 123.58 496.15 123.42C495.57 121.17 496.46 117.73 498.71 116.91Z" fill="#263238"/>
<path d="M485.81 139.26L490.42 146.8L498.75 134.87L502.15 137.68C502.15 137.68 495.06 155.6 494.87 154.88L490.36 148.46L486.36 154.12L484.7 141.88L485.81 139.26Z" fill="#EBEBEB"/>
<path d="M485.2 148.12C484.99 146.12 484.73 144.04 484.62 142.01C484.62 141.93 484.72 141.88 484.75 142.01C485.48 143.89 486.23 151.66 486.55 153.5C486.72 153.25 490.3 148.5 490.35 148.5C491.26 149.5 494.56 154.15 494.81 154.59C495.93 151.74 500.31 141.34 501.74 138.59C501.745 138.577 501.754 138.566 501.766 138.558C501.777 138.551 501.791 138.546 501.805 138.546C501.819 138.546 501.833 138.551 501.844 138.558C501.856 138.566 501.865 138.577 501.87 138.59C500.96 141.59 495.2 155.53 495.07 155.51C493.376 153.335 491.797 151.071 490.34 148.73C489.77 149.73 486.24 155.04 486.17 154.73C485.733 152.545 485.409 150.339 485.2 148.12Z" fill="#263238"/>
<path d="M491.811 150.48C491.833 150.899 491.729 151.314 491.514 151.673C491.299 152.032 490.981 152.32 490.602 152.498C490.224 152.676 489.8 152.738 489.386 152.675C488.972 152.612 488.586 152.427 488.277 152.144C487.969 151.861 487.751 151.492 487.653 151.085C487.554 150.678 487.579 150.251 487.725 149.858C487.87 149.465 488.129 149.124 488.468 148.879C488.808 148.633 489.212 148.495 489.631 148.48C490.184 148.461 490.722 148.66 491.13 149.034C491.538 149.408 491.782 149.928 491.811 150.48Z" fill="#68B8BE"/>
<path d="M490.511 149.54C490.511 149.54 496.151 142.16 497.191 144.89C497.51 145.61 497.631 146.403 497.539 147.186C497.448 147.969 497.148 148.713 496.671 149.34C496.671 149.34 498.541 152.34 497.241 153.03C495.941 153.72 490.741 152.08 490.571 151.31C490.47 150.726 490.45 150.13 490.511 149.54Z" fill="#68B8BE"/>
<path d="M489.23 149.55C489.23 149.55 484.99 142.95 484.44 145.55C484.255 146.243 484.212 146.966 484.313 147.676C484.415 148.385 484.658 149.067 485.03 149.68C485.03 149.68 483.92 152.57 484.85 153.16C485.78 153.75 489.21 151.93 489.28 151.16C489.317 150.623 489.3 150.084 489.23 149.55Z" fill="#68B8BE"/>
<path d="M270.399 330.38L272.919 345.45L289.939 437.39H292.689L280.309 345.45L278.479 330.38H270.399Z" fill="#DBDBDB"/>
<path d="M278.479 330.38H270.399L272.919 345.45H280.309L278.479 330.38Z" fill="#A6A6A6"/>
<path d="M216.939 437.39H219.689L236.709 345.45L239.229 330.38H231.149L229.319 345.45L216.939 437.39Z" fill="#DBDBDB"/>
<path d="M231.15 330.38L229.32 345.45H236.71L239.23 330.38H231.15Z" fill="#A6A6A6"/>
<path d="M165.88 437.39H168.63L185.65 345.45L188.16 330.38H180.09L178.26 345.45L165.88 437.39Z" fill="#DBDBDB"/>
<path d="M178.26 345.45H185.65L188.16 330.38H180.09L178.26 345.45Z" fill="#A6A6A6"/>
<path d="M170.229 337.46H294.98V324.32H248.279L232.589 233.01H174.99L170.229 337.46Z" fill="#DBDBDB"/>
<path d="M170.229 337.46H177.029L181.469 233.01H174.99L170.229 337.46Z" fill="#C7C7C7"/>
<path d="M514.44 330.38L511.93 345.45L494.9 437.39H492.16L504.54 345.45L506.37 330.38H514.44Z" fill="#DBDBDB"/>
<path d="M506.37 330.38H514.44L511.93 345.45H504.54L506.37 330.38Z" fill="#A6A6A6"/>
<path d="M567.9 437.39H565.16L548.13 345.45L545.62 330.38H553.69L555.52 345.45L567.9 437.39Z" fill="#DBDBDB"/>
<path d="M553.69 330.38L555.52 345.45H548.13L545.62 330.38H553.69Z" fill="#A6A6A6"/>
<path d="M618.96 437.39H616.22L599.2 345.45L596.68 330.38H604.75L606.58 345.45L618.96 437.39Z" fill="#DBDBDB"/>
<path d="M606.58 345.45H599.2L596.68 330.38H604.75L606.58 345.45Z" fill="#A6A6A6"/>
<path d="M614.61 337.46H489.87V324.32H536.56L552.26 233.01H609.86L614.61 337.46Z" fill="#DBDBDB"/>
<path d="M614.61 337.46H607.81L603.38 233.01H609.86L614.61 337.46Z" fill="#C7C7C7"/>
<path d="M487.73 269.45L487.42 293.42L484.08 443.43H480.32L476.97 293.42L476.67 269.45H487.73Z" fill="#455A64"/>
<path d="M487.73 269.45L487.42 293.42H476.97L476.67 269.45H487.73Z" fill="#37474F"/>
<path d="M275.031 269.45L274.721 293.42L271.381 443.43H267.621L264.271 293.42L263.971 269.45H275.031Z" fill="#455A64"/>
<path d="M263.971 269.45H275.031L274.721 293.42H264.271L263.971 269.45Z" fill="#37474F"/>
<path d="M512.74 259.53H240.24V275.1H512.74V259.53Z" fill="#455A64"/>
<path d="M268.33 258.41H484.65L376.49 300.62L268.33 258.41Z" fill="#EBEBEB"/>
<path d="M366.88 207.45C375.31 215.7 376.72 228.45 374.95 239.64C374.9 239.9 374.51 239.83 374.51 239.64C374.51 237.1 374.59 234.57 374.58 232.06C374.53 231.94 374.49 231.84 374.45 231.72C372.181 230.225 370.302 228.209 368.97 225.84C367.57 223.07 366.97 219.95 365.97 217.06C365.87 216.78 366.17 216.86 366.36 217C371.49 220.78 373.12 224.85 374.59 230.29C374.566 227.445 374.268 224.608 373.7 221.82C372.72 216.562 370.296 211.68 366.7 207.72C366.52 207.53 366.73 207.3 366.88 207.45Z" fill="#263238"/>
<path d="M365.3 208.41C363.85 208.46 362.94 210.78 361.81 211.41C361.692 211.506 361.555 211.576 361.407 211.616C361.26 211.656 361.106 211.664 360.955 211.641C360.804 211.617 360.66 211.562 360.531 211.479C360.403 211.397 360.294 211.288 360.21 211.16C359.09 209.6 360.62 207.67 362.07 206.59C361.12 207.154 360.115 207.619 359.07 207.98C358.927 208.027 358.776 208.042 358.626 208.025C358.476 208.008 358.332 207.959 358.203 207.881C358.074 207.803 357.963 207.698 357.878 207.574C357.793 207.45 357.736 207.308 357.71 207.16C357.22 205.03 359.89 204.09 361.71 204.04C360.83 203.42 358.28 201.74 359.63 200.92C360.98 200.1 363.99 202.49 364.97 203.28C366.4 204.44 368.11 206.18 368.17 208C368.27 210.16 366.41 208.86 365.3 208.41Z" fill="#68B8BE"/>
<path opacity="0.1" d="M365.3 208.41C363.85 208.46 362.94 210.78 361.81 211.41C361.692 211.506 361.555 211.576 361.407 211.616C361.26 211.656 361.106 211.664 360.955 211.641C360.804 211.617 360.66 211.562 360.531 211.479C360.403 211.397 360.294 211.288 360.21 211.16C359.09 209.6 360.62 207.67 362.07 206.59C361.12 207.154 360.115 207.619 359.07 207.98C358.927 208.027 358.776 208.042 358.626 208.025C358.476 208.008 358.332 207.959 358.203 207.881C358.074 207.803 357.963 207.698 357.878 207.574C357.793 207.45 357.736 207.308 357.71 207.16C357.22 205.03 359.89 204.09 361.71 204.04C360.83 203.42 358.28 201.74 359.63 200.92C360.98 200.1 363.99 202.49 364.97 203.28C366.4 204.44 368.11 206.18 368.17 208C368.27 210.16 366.41 208.86 365.3 208.41Z" fill="black"/>
<path d="M365.72 208.77C363.86 207.93 360.3 209.14 360 208.44C359.39 207.01 362.23 206.03 363.77 205.84C362.35 205.46 359.64 204.84 359.77 203.48C359.88 201.82 363.93 203.25 365.99 204.82C368.57 206.82 368.55 208.72 368.13 209.1C367.49 209.63 366 208.91 365.72 208.77Z" fill="#68B8BE"/>
<path d="M386.07 206.63C377.34 214.56 375.44 227.26 376.79 238.5C376.79 238.75 377.22 238.7 377.23 238.5C377.33 235.96 377.34 233.43 377.45 230.92L377.59 230.59C379.916 229.183 381.871 227.239 383.29 224.92C384.8 222.21 385.47 219.11 386.66 216.26C386.77 215.99 386.47 216.06 386.27 216.19C381 219.77 379.27 223.78 377.54 229.19C377.682 226.349 378.087 223.527 378.75 220.76C379.934 215.541 382.545 210.753 386.29 206.93C386.33 206.901 386.357 206.857 386.364 206.809C386.372 206.76 386.36 206.71 386.33 206.67C386.301 206.63 386.258 206.604 386.209 206.596C386.16 206.589 386.11 206.601 386.07 206.63Z" fill="#263238"/>
<path d="M387.62 207.65C389.07 207.76 389.89 210.11 390.99 210.83C391.105 210.931 391.24 211.006 391.386 211.052C391.531 211.097 391.685 211.112 391.837 211.094C391.989 211.076 392.135 211.026 392.267 210.948C392.398 210.87 392.512 210.765 392.6 210.64C393.78 209.12 392.32 207.13 390.91 206C391.842 206.594 392.83 207.097 393.86 207.5C394.001 207.55 394.151 207.57 394.3 207.559C394.449 207.547 394.594 207.504 394.725 207.432C394.857 207.36 394.971 207.261 395.062 207.142C395.152 207.023 395.216 206.886 395.25 206.74C395.82 204.63 393.18 203.58 391.35 203.46C392.27 202.88 394.88 201.3 393.56 200.46C392.24 199.62 389.14 201.87 388.13 202.62C386.66 203.73 384.88 205.4 384.75 207.21C384.58 209.29 386.49 208.06 387.62 207.65Z" fill="#68B8BE"/>
<path opacity="0.1" d="M387.62 207.65C389.07 207.76 389.89 210.11 390.99 210.83C391.105 210.931 391.24 211.006 391.386 211.052C391.531 211.097 391.685 211.112 391.837 211.094C391.989 211.076 392.135 211.026 392.267 210.948C392.398 210.87 392.512 210.765 392.6 210.64C393.78 209.12 392.32 207.13 390.91 206C391.842 206.594 392.83 207.097 393.86 207.5C394.001 207.55 394.151 207.57 394.3 207.559C394.449 207.547 394.594 207.504 394.725 207.432C394.857 207.36 394.971 207.261 395.062 207.142C395.152 207.023 395.216 206.886 395.25 206.74C395.82 204.63 393.18 203.58 391.35 203.46C392.27 202.88 394.88 201.3 393.56 200.46C392.24 199.62 389.14 201.87 388.13 202.62C386.66 203.73 384.88 205.4 384.75 207.21C384.58 209.29 386.49 208.06 387.62 207.65Z" fill="black"/>
<path d="M387.19 208C389.07 207.23 392.58 208.58 392.91 207.89C393.58 206.49 390.77 205.4 389.25 205.15C390.67 204.82 393.41 204.32 393.38 202.95C393.38 201.28 389.23 202.56 387.12 204.05C384.46 205.94 384.4 207.85 384.82 208.25C385.24 208.65 386.88 208.12 387.19 208Z" fill="#68B8BE"/>
<path d="M377.14 227.56C376.553 231.799 375.648 235.988 374.43 240.09C374.422 240.13 374.407 240.168 374.384 240.202C374.361 240.236 374.332 240.266 374.298 240.288C374.264 240.311 374.226 240.327 374.186 240.335C374.146 240.343 374.105 240.343 374.065 240.335C374.025 240.327 373.987 240.312 373.953 240.289C373.919 240.266 373.89 240.237 373.867 240.204C373.844 240.17 373.828 240.132 373.82 240.092C373.812 240.052 373.812 240.01 373.82 239.97C374.39 236.11 375.44 232.32 376.01 228.45C376.638 224.547 376.862 220.589 376.68 216.64C376.31 210.13 374.55 203.21 370.3 198.12C370.21 198 370.41 197.83 370.5 197.94C379 207.85 377.65 220 377.64 221.09C378.85 216.99 380.09 212.28 384.64 208.09C384.83 207.91 384.99 207.99 384.96 208.3C384.14 215.91 382.03 219.88 377.61 223.95C377.49 225.18 377.33 226.38 377.14 227.56Z" fill="#263238"/>
<path d="M370.231 199.26C368.701 198.58 366.591 200.53 365.071 200.66C364.899 200.699 364.721 200.702 364.549 200.668C364.376 200.634 364.212 200.565 364.068 200.464C363.924 200.363 363.803 200.234 363.712 200.083C363.621 199.932 363.563 199.765 363.541 199.59C363.171 197.41 365.73 196.18 367.77 195.79C366.49 195.71 365.22 196.05 363.96 195.71C363.79 195.686 363.626 195.627 363.481 195.535C363.335 195.443 363.211 195.321 363.116 195.177C363.021 195.033 362.959 194.87 362.932 194.7C362.905 194.53 362.915 194.356 362.96 194.19C363.52 191.73 366.771 192.09 368.701 192.97C368.091 191.88 366.29 188.85 368.11 188.68C369.93 188.51 371.84 192.5 372.46 193.81C373.36 195.74 374.26 198.41 373.46 200.33C372.43 202.57 371.161 200.28 370.231 199.26Z" fill="#68B8BE"/>
<path opacity="0.1" d="M370.231 199.26C368.701 198.58 366.591 200.53 365.071 200.66C364.899 200.699 364.721 200.702 364.549 200.668C364.376 200.634 364.212 200.565 364.068 200.464C363.924 200.363 363.803 200.234 363.712 200.083C363.621 199.932 363.563 199.765 363.541 199.59C363.171 197.41 365.73 196.18 367.77 195.79C366.49 195.71 365.22 196.05 363.96 195.71C363.79 195.686 363.626 195.627 363.481 195.535C363.335 195.443 363.211 195.321 363.116 195.177C363.021 195.033 362.959 194.87 362.932 194.7C362.905 194.53 362.915 194.356 362.96 194.19C363.52 191.73 366.771 192.09 368.701 192.97C368.091 191.88 366.29 188.85 368.11 188.68C369.93 188.51 371.84 192.5 372.46 193.81C373.36 195.74 374.26 198.41 373.46 200.33C372.43 202.57 371.161 200.28 370.231 199.26Z" fill="black"/>
<path d="M370.48 199.84C368.98 198.03 364.68 197.5 364.72 196.62C364.8 194.83 368.24 195.24 369.93 195.82C368.66 194.71 366.15 192.71 366.93 191.34C367.87 189.66 371.36 193.19 372.69 195.86C374.38 199.21 373.4 201.19 372.76 201.37C371.89 201.62 370.73 200.14 370.48 199.84Z" fill="#68B8BE"/>
<path d="M382.73 229.85L386.48 258.49H363.67C364.14 255.96 368.39 229.82 368.39 229.82L382.73 229.85Z" fill="#68B8BE"/>
<path d="M264.36 448.69C262.28 449.38 202.85 449.21 200.59 447.77C199.73 447.23 199.25 438.57 198.97 428.09C198.9 425.83 198.86 423.5 198.82 421.09C198.82 418.28 198.74 415.43 198.72 412.67C198.65 400.26 198.82 389.33 198.82 389.33H237.51V412.67V421.09L237.31 428.09C237.31 428.09 260.03 438.34 262.31 440.19C264.59 442.04 266.43 448 264.36 448.69Z" fill="#D3766A"/>
<path d="M264.36 448.69C262.27 449.38 202.85 449.21 200.58 447.77C199.88 447.32 199.42 441.31 199.13 433.3C216.13 435.81 248.07 439.62 251.28 438.3C253.92 437.3 249.94 434.36 246.42 432.24C253.01 435.3 260.99 439.1 262.31 440.15C264.62 442 266.43 448 264.36 448.69Z" fill="#263238"/>
<path d="M185.92 221.73C185.92 221.73 196.37 327.91 196.62 329.22C196.62 329.39 198.68 408.57 198.68 408.57L237.49 408.72C237.49 408.72 237.36 338.89 235.76 323.55C233.76 303.99 221.26 221.73 221.26 221.73H185.92Z" fill="#D3766A"/>
<path d="M215.999 221.72L197.309 354.12C196.939 340.67 196.639 329.82 196.609 329.24C196.369 327.93 185.909 221.74 185.909 221.74L215.999 221.72Z" fill="#263238"/>
<path d="M206.409 452.92C204.289 453.46 145.029 449.05 142.869 447.45C142.049 446.86 142.199 438.18 142.659 427.72C142.749 425.45 148.089 389.08 148.089 389.08L185.319 391.89L180.879 430.44C180.879 430.44 202.809 442.28 204.979 444.28C207.149 446.28 208.529 452.38 206.409 452.92Z" fill="#D3766A"/>
<path d="M206.41 452.92C204.29 453.45 145.03 449.05 142.87 447.45C142.14 446.92 142.18 440 142.51 431.11C157.56 435.4 193.75 444.35 197.36 443.4C199.6 442.81 197.61 440.47 195.04 438.26C199.77 440.93 204.04 443.45 204.98 444.26C207.14 446.28 208.53 452.38 206.41 452.92Z" fill="#263238"/>
<path d="M221.26 221.73C221.26 221.73 219.89 235.56 214.26 243.26C212.56 245.56 207.15 247.47 204.75 249.26C204.75 249.26 197.46 321.2 195.48 331.11C194.48 336.23 182.72 412.74 182.72 412.74L145.1 409.94C145.1 409.94 156.31 335.45 157.26 329.94C158.21 324.43 163.26 259.52 163.01 257.94C160.45 238.84 169.6 221.85 169.6 221.85L221.26 221.73Z" fill="#D3766A"/>
<path d="M169.57 221.73H222.09C222.09 221.73 235.8 316.34 236.42 321.87C237.04 327.4 237.49 336.87 237.49 336.87C226.381 341.001 214.641 343.179 202.79 343.31C180.79 343.62 154.93 334.87 154.93 334.87C154.93 334.87 156.47 329.35 156.77 327.66C157.07 325.97 162.77 257.99 162.77 257.99C162.77 257.99 161.48 235.77 169.57 221.73Z" fill="#263238"/>
<path d="M169.569 221.73H224.069C224.069 221.73 233.199 282.16 233.579 283.19C233.959 284.22 231.439 299.72 210.329 300.54C189.219 301.36 159.079 288.54 159.079 288.54L162.529 258.31C162.529 258.31 159.489 238.68 169.569 221.73Z" fill="#68B8BE"/>
<path d="M217.14 163.67C233.41 177.92 254.84 208.82 251.77 215.67C248.34 223.25 225.67 203.28 225.66 202.01C225.66 201.06 216.79 182.01 210.11 168.12C203.43 154.23 213.11 160.15 217.14 163.67Z" fill="#D3766A"/>
<path d="M225.52 202C224.72 200 212.72 174.81 209.24 166.84C205.76 158.87 208.24 156.15 217.04 163.03C225.84 169.91 245.73 193.63 250.83 206.62C255.74 219.12 249.15 219.62 240.03 214.35C232.55 210.05 225.52 202 225.52 202Z" fill="#EBEBEB"/>
<path d="M224.229 203.76L224.069 221.76H169.569C169.569 221.76 180.339 173.48 194.569 160.66C201.689 154.25 209.229 155.48 213.569 160.84C214.679 162.2 227.469 182.84 228.319 190.39C229.109 197 224.229 203.76 224.229 203.76Z" fill="#EBEBEB"/>
<path d="M227.119 185.73C226.509 184 225.799 182.3 225.049 180.62C224.629 178.967 224.236 177.3 223.869 175.62C223.869 175.57 223.789 175.62 223.799 175.62C223.941 176.85 224.165 178.07 224.469 179.27C223.46 177.09 222.332 174.967 221.089 172.91C221.039 172.82 220.919 172.91 220.959 172.99C222.998 176.784 224.733 180.733 226.149 184.8C226.917 186.805 227.369 188.917 227.489 191.06C227.506 193.15 227.223 195.231 226.649 197.24C226.349 198.39 225.969 199.52 225.559 200.63C225.149 201.74 224.719 203.01 224.219 204.14C224.219 204.23 224.309 204.3 224.349 204.22C224.819 203.22 225.349 202.22 225.849 201.22C226.349 200.22 226.679 199.32 227.049 198.36C227.84 196.373 228.286 194.267 228.369 192.13C228.34 189.939 227.916 187.771 227.119 185.73Z" fill="#263238"/>
<path d="M214.32 177.93C214.217 177.232 213.891 176.586 213.389 176.09C213.577 175.756 213.688 175.384 213.715 175.002C213.742 174.62 213.685 174.236 213.546 173.879C213.407 173.521 213.192 173.199 212.914 172.935C212.636 172.67 212.303 172.471 211.939 172.35C211.699 172.27 211.709 172.35 211.789 172.06C211.86 171.861 211.901 171.652 211.91 171.44C211.919 171.032 211.804 170.631 211.579 170.29C211.366 169.974 211.054 169.738 210.692 169.618C210.33 169.499 209.939 169.503 209.579 169.63C209.553 169.63 209.528 169.641 209.509 169.66C209.49 169.678 209.479 169.704 209.479 169.73C209.479 169.757 209.49 169.782 209.509 169.801C209.528 169.82 209.553 169.83 209.579 169.83C210.469 169.92 211.35 170.5 211.16 171.52C211.08 171.97 210.71 172.52 211.21 172.89C211.466 173.012 211.734 173.109 212.009 173.18C212.313 173.326 212.572 173.55 212.759 173.83C212.968 174.154 213.079 174.53 213.079 174.915C213.079 175.3 212.968 175.677 212.759 176C212.719 176.055 212.697 176.122 212.697 176.19C212.697 176.259 212.719 176.325 212.759 176.38C213.044 176.613 213.279 176.899 213.451 177.224C213.622 177.549 213.727 177.904 213.759 178.27C213.869 178.96 213.759 179.68 213.919 180.36C213.919 180.49 214.109 180.45 214.149 180.36C214.402 179.576 214.461 178.742 214.32 177.93Z" fill="#263238"/>
<path d="M216.26 178.29C216.285 177.576 216.074 176.873 215.66 176.29C215.901 175.991 216.072 175.642 216.162 175.268C216.253 174.895 216.259 174.506 216.182 174.13C216.105 173.753 215.945 173.399 215.715 173.091C215.485 172.783 215.189 172.531 214.85 172.35C214.63 172.24 214.63 172.27 214.74 172.05C214.846 171.863 214.923 171.66 214.97 171.45C215.046 171.049 214.997 170.633 214.83 170.26C214.677 169.902 214.406 169.608 214.062 169.426C213.718 169.244 213.322 169.185 212.94 169.26C212.913 169.26 212.888 169.271 212.869 169.29C212.85 169.308 212.84 169.334 212.84 169.36C212.84 169.387 212.85 169.412 212.869 169.431C212.888 169.45 212.913 169.46 212.94 169.46C213.8 169.69 214.58 170.46 214.22 171.38C214.06 171.82 213.61 172.31 214.04 172.75C214.274 172.912 214.521 173.052 214.78 173.17C215.006 173.33 215.195 173.538 215.332 173.779C215.47 174.02 215.553 174.288 215.576 174.564C215.598 174.841 215.561 175.119 215.465 175.379C215.369 175.639 215.217 175.875 215.02 176.07C214.979 176.125 214.957 176.192 214.957 176.26C214.957 176.329 214.979 176.395 215.02 176.45C215.506 176.999 215.758 177.718 215.72 178.45C215.72 179.15 215.51 179.85 215.53 180.54C215.53 180.66 215.71 180.66 215.76 180.54C216.096 179.838 216.267 179.069 216.26 178.29Z" fill="#263238"/>
<path d="M212.15 178.78C212.019 178.088 211.668 177.457 211.15 176.98C211.324 176.638 211.421 176.261 211.432 175.877C211.444 175.493 211.371 175.111 211.218 174.759C211.065 174.406 210.837 174.092 210.548 173.838C210.26 173.584 209.919 173.397 209.55 173.29C209.31 173.22 209.32 173.29 209.39 173.01C209.453 172.806 209.487 172.594 209.49 172.38C209.481 171.973 209.349 171.579 209.11 171.25C208.884 170.936 208.559 170.707 208.186 170.602C207.814 170.496 207.417 170.52 207.06 170.67C207.033 170.67 207.008 170.68 206.989 170.699C206.97 170.718 206.96 170.743 206.96 170.77C206.96 170.796 206.97 170.822 206.989 170.841C207.008 170.859 207.033 170.87 207.06 170.87C207.95 170.87 208.86 171.47 208.71 172.49C208.64 172.95 208.3 173.49 208.82 173.87C209.08 173.974 209.347 174.058 209.62 174.12C209.931 174.253 210.2 174.467 210.4 174.74C210.618 175.057 210.739 175.431 210.75 175.816C210.761 176.201 210.66 176.581 210.46 176.91C210.432 176.973 210.423 177.043 210.436 177.111C210.448 177.179 210.481 177.241 210.53 177.29C210.83 177.508 211.083 177.784 211.273 178.102C211.464 178.42 211.589 178.773 211.64 179.14C211.78 179.82 211.73 180.55 211.89 181.22C211.89 181.34 212.08 181.3 212.12 181.22C212.323 180.42 212.333 179.584 212.15 178.78Z" fill="#263238"/>
<path d="M251.689 215.63C248.629 220.76 240.169 225.14 217.349 231.37C214.189 232.23 201.349 208.82 204.689 207.72C208.869 206.35 225.419 201.9 226.689 201.72C237.229 200.28 253.759 212.15 251.689 215.63Z" fill="#D3766A"/>
<path d="M175.589 222C175.665 222.829 175.994 223.615 176.53 224.252C177.067 224.888 177.785 225.345 178.589 225.56C177.91 226.798 177.683 228.234 177.949 229.62C178.529 232.04 182.589 232.19 182.589 232.19C182.15 233.621 182.15 235.15 182.589 236.58C183.379 238.84 187.449 239.58 187.449 239.58C187.775 241.117 188.641 242.487 189.889 243.44C193.319 245.85 199.229 243.35 202.989 241.79C206.749 240.23 215.999 232.3 217.899 231L208.139 206.74C208.139 206.74 189.259 208.89 185.139 211.35C181.579 213.38 175.419 218.83 175.589 222Z" fill="#D3766A"/>
<path d="M178.59 225.11C181.8 222.02 185.75 220.04 189.59 217.84C189.67 217.79 189.75 217.93 189.66 217.98C185.83 220.12 182.47 222.98 178.73 225.28C178.62 225.35 178.51 225.2 178.59 225.11Z" fill="#263238"/>
<path d="M182.53 231.85C183.324 231.215 184.198 230.687 185.13 230.28C186.13 229.8 187.06 229.28 188.03 228.87C190.03 227.95 191.96 227.08 193.96 226.27C194.05 226.27 194.12 226.36 194.03 226.4C192.09 227.32 190.16 228.26 188.25 229.26C187.3 229.76 186.35 230.26 185.41 230.78C184.546 231.318 183.628 231.76 182.67 232.1C182.638 232.107 182.606 232.103 182.576 232.09C182.547 232.077 182.523 232.055 182.507 232.027C182.492 231.999 182.485 231.966 182.489 231.935C182.493 231.903 182.507 231.873 182.53 231.85Z" fill="#263238"/>
<path d="M187.52 239.53C188.25 238.972 189.068 238.539 189.94 238.25L192.63 237.04C194.42 236.22 196.21 235.41 197.96 234.53C198.05 234.48 198.13 234.62 198.04 234.66C196.26 235.56 194.49 236.49 192.7 237.38L190.06 238.67C189.292 239.148 188.446 239.486 187.56 239.67C187.51 239.63 187.49 239.56 187.52 239.53Z" fill="#263238"/>
<path d="M207.189 206.48L229.999 229.33C229.999 229.33 249.349 221.33 251.999 215.88C253.729 212.27 237.249 199.43 225.709 201.88L207.189 206.48Z" fill="#EBEBEB"/>
<path d="M239.85 204.59C235.604 201.989 230.55 201.038 225.65 201.92C225.59 201.92 225.6 202.03 225.65 202.02C230.73 201.51 237.79 203.66 239.8 204.68C239.86 204.71 239.89 204.62 239.85 204.59Z" fill="#263238"/>
<path d="M234.4 223.39C232.12 220.94 229.7 218.62 227.28 216.3C224.86 213.98 222.43 211.65 219.95 209.39C218.54 208.12 217.15 206.83 215.7 205.61L215.64 205.67C217.92 208.11 220.33 210.45 222.73 212.78C225.13 215.11 227.58 217.43 230.03 219.72C231.42 221.01 232.83 222.28 234.28 223.5C234.35 223.57 234.47 223.46 234.4 223.39Z" fill="#263238"/>
<path d="M198.3 208.06C198.779 207.344 199.358 206.701 200.02 206.15C201.39 204.85 221.12 200.95 224.57 201.28C228.02 201.61 239.24 211.39 241.39 217.94C243.54 224.49 244.15 249.66 243.64 249.86C243.13 250.06 212 255.38 212 255.38C212 255.38 212.18 233.64 212 227.58C211.82 221.52 201 207.58 200.41 207.73C199.715 207.891 199.01 208.002 198.3 208.06Z" fill="white"/>
<path d="M243.81 246.06L212 250.93C212 250.5 212 250.04 212 249.55L243.75 244.68C243.8 245.16 243.81 245.63 243.81 246.06Z" fill="#EBEBEB"/>
<path d="M243.76 242.63L212.05 247.51C212.05 247.05 212.05 246.59 212.05 246.11L243.71 241.25C243.73 241.73 243.74 242.19 243.76 242.63Z" fill="#EBEBEB"/>
<path d="M197.54 171.91C191.27 182.97 174.34 216.48 159.89 216.48C149.66 216.48 123.09 175.31 120.72 170.04C118.79 165.73 146.15 157.17 147.5 160.04C150.3 165.92 158.26 181.1 161.84 184.16C164.22 186.16 181.95 168.16 192.71 161.5C201.93 155.79 202.2 163.67 197.54 171.91Z" fill="#D3766A"/>
<path d="M112.81 161C110.18 159.9 89.8799 159.29 89.8799 154.89C89.8799 150.49 115.7 151.68 115.7 151.68L112.81 161Z" fill="#D3766A"/>
<path d="M149.66 168.62C150.29 161.24 145.05 152.31 141.97 151.45C139.83 150.85 116.85 151.88 113.26 151.67C109.67 151.46 96.87 151.81 96.58 154.96C96.17 159.41 110.43 159.57 112.81 161.02C115.19 162.47 123 173.89 123 173.89L149.66 168.62Z" fill="#D3766A"/>
<path d="M96.4695 155C96.6935 154.174 97.2176 153.461 97.9395 153C99.4995 151.9 101.569 151.81 103.419 151.66C106.219 151.402 109.036 151.379 111.839 151.59C111.853 151.59 111.865 151.596 111.875 151.605C111.884 151.614 111.889 151.627 111.889 151.64C111.889 151.654 111.884 151.666 111.875 151.676C111.865 151.685 111.853 151.69 111.839 151.69C109.739 151.69 107.649 151.74 105.549 151.92C103.626 151.998 101.718 152.29 99.8595 152.79C99.0214 153.014 98.2627 153.467 97.6695 154.1C97.458 154.323 97.3073 154.596 97.232 154.894C97.1567 155.192 97.1593 155.504 97.2395 155.8C97.8495 157.74 101.669 158.31 103.429 158.7C105.739 159.22 108.129 159.7 110.429 160.15C110.529 160.15 110.429 160.32 110.429 160.3C108.029 159.83 105.489 159.64 103.069 159.21C101.069 158.85 99.0695 158.45 97.4295 157.15C97.0831 156.919 96.8092 156.594 96.6393 156.214C96.4694 155.833 96.4106 155.413 96.4695 155Z" fill="#263238"/>
<path d="M149.41 163.24L125.09 184.14C125.09 184.14 147.25 216.9 160.57 217.44C173.89 217.98 191.84 185 197.4 173.86C202.96 162.72 203.22 153.37 187.94 164.19C172.66 175.01 163.3 183.3 162.38 183.14C161.46 182.98 149.41 163.24 149.41 163.24Z" fill="#EBEBEB"/>
<path d="M194.409 179.73C194.421 179.709 194.424 179.684 194.418 179.66C194.411 179.637 194.395 179.617 194.374 179.605C194.353 179.593 194.328 179.59 194.304 179.597C194.281 179.603 194.261 179.619 194.249 179.64C191.519 183.88 188.889 188.19 186.119 192.39C183.349 196.59 180.369 200.77 177.359 204.87C175.689 207.15 174.019 209.47 172.219 211.66C172.149 211.75 172.279 211.88 172.359 211.79C175.709 207.99 178.999 204.2 182.009 200.1C184.379 196.85 186.659 193.53 188.759 190.1C190.287 188.526 191.714 186.856 193.029 185.1C193.079 185.03 193.029 184.93 192.929 185C191.729 186.3 190.579 187.64 189.409 189C189.729 188.46 190.059 187.93 190.409 187.39C191.799 184.89 193.199 182.36 194.409 179.73Z" fill="#263238"/>
<path d="M150.999 169.75C147.299 172.75 143.809 175.88 140.289 179.05C136.769 182.22 133.359 185.44 130.069 188.8C129.989 188.88 130.069 188.98 130.189 188.91C133.889 185.96 137.469 182.85 140.969 179.68C144.469 176.51 147.969 173.37 151.269 170C151.419 169.83 151.159 169.6 150.999 169.75Z" fill="#263238"/>
<path d="M127.569 107.16H125.109V111.17H127.569V107.16Z" fill="#C7C7C7"/>
<path d="M155.49 147.7H80.8096V151.82H155.49V147.7Z" fill="#C7C7C7"/>
<path d="M152.319 147.7H83.7295C83.7295 147.7 97.7295 112.7 125.089 110.25C152.449 107.8 152.319 147.7 152.319 147.7Z" fill="#C7C7C7"/>
<path d="M152.319 147.7H83.7295C83.7295 147.7 84.2595 146.39 85.2895 144.25L151.369 137.59C151.947 140.931 152.264 144.311 152.319 147.7Z" fill="#A6A6A6"/>
<path d="M113.752 129.024C118.883 124.339 121.143 118.462 118.8 115.896C116.458 113.331 110.4 115.049 105.269 119.734C100.139 124.419 97.8784 130.296 100.221 132.862C102.563 135.427 108.621 133.709 113.752 129.024Z" fill="#DBDBDB"/>
<path d="M199.999 158.72C200.339 159.65 205.629 165.24 209.939 164.5C211.349 164.26 210.359 156.5 210.359 156.5L210.419 155.91L211.209 147.7L200.999 142.88L199.539 142.25C199.539 142.25 199.469 144.51 199.409 147.33V147.73C199.409 147.89 199.409 148.04 199.409 148.19C199.409 148.61 199.409 149.04 199.409 149.47C199.409 149.9 199.409 150.11 199.409 150.47V151.47C199.44 153.897 199.637 156.32 199.999 158.72Z" fill="#D3766A"/>
<path d="M199.449 147.33C200.53 149.484 202.068 151.375 203.956 152.873C205.844 154.37 208.036 155.438 210.379 156L211.169 147.79L200.999 142.88L199.539 142.25C199.539 142.25 199.509 144.51 199.449 147.33Z" fill="#263238"/>
<path d="M221.69 135.69C222.76 150.13 214.23 152.4 211.11 152.63C208.28 152.84 198.63 153.18 196.11 138.92C193.59 124.66 199.93 119.61 206.37 118.8C212.81 117.99 220.62 121.25 221.69 135.69Z" fill="#D3766A"/>
<path d="M219.259 131.86C218.924 131.837 218.59 131.793 218.259 131.73C217.899 131.731 217.548 131.616 217.259 131.4C217.189 131.31 217.15 131.199 217.15 131.085C217.15 130.971 217.189 130.86 217.259 130.77C217.411 130.601 217.605 130.476 217.821 130.407C218.037 130.338 218.268 130.329 218.489 130.38C218.955 130.413 219.393 130.616 219.719 130.95C219.791 131.032 219.837 131.135 219.851 131.243C219.865 131.352 219.845 131.462 219.796 131.56C219.747 131.658 219.669 131.738 219.573 131.792C219.478 131.845 219.368 131.869 219.259 131.86Z" fill="#263238"/>
<path d="M209.78 132.62C210.119 132.55 210.453 132.456 210.78 132.34C211.133 132.289 211.46 132.124 211.71 131.87C211.778 131.781 211.815 131.672 211.815 131.56C211.815 131.448 211.778 131.339 211.71 131.25C211.535 131.104 211.324 131.008 211.099 130.971C210.874 130.934 210.643 130.958 210.43 131.04C209.978 131.145 209.579 131.412 209.31 131.79C209.261 131.873 209.234 131.968 209.233 132.065C209.233 132.162 209.257 132.257 209.305 132.341C209.352 132.425 209.422 132.495 209.505 132.544C209.588 132.593 209.683 132.62 209.78 132.62Z" fill="#263238"/>
<path d="M212 136.12C212 136.12 211.92 136.18 211.93 136.22C212.06 137.22 212.04 138.34 211.18 138.75C211.18 138.75 211.18 138.81 211.18 138.8C212.24 138.55 212.25 137 212 136.12Z" fill="#263238"/>
<path d="M210.999 135.18C209.409 135.18 209.599 138.4 211.069 138.36C212.539 138.32 212.329 135.15 210.999 135.18Z" fill="#263238"/>
<path d="M210.389 135.39C210.119 135.59 209.869 135.92 209.529 135.97C209.189 136.02 208.839 135.72 208.529 135.41H208.479C208.479 136.02 208.779 136.63 209.479 136.68C210.179 136.73 210.479 136.17 210.589 135.55C210.599 135.47 210.489 135.31 210.389 135.39Z" fill="#263238"/>
<path d="M217.629 135.6C217.629 135.6 217.699 135.6 217.709 135.69C217.709 136.69 217.909 137.8 218.819 138.08C217.719 138 217.479 136.54 217.629 135.6Z" fill="#263238"/>
<path d="M218.449 134.53C220.029 134.33 220.319 137.53 218.849 137.68C217.379 137.83 217.129 134.7 218.449 134.53Z" fill="#263238"/>
<path d="M219.129 134.68C219.399 134.82 219.669 135.11 219.969 135.1C220.269 135.09 220.549 134.72 220.739 134.37C220.809 134.97 220.669 135.62 220.099 135.79C219.529 135.96 219.099 135.46 218.939 134.87C218.999 134.8 218.999 134.62 219.129 134.68Z" fill="#263238"/>
<path d="M212.35 144C212.59 144.23 212.83 144.55 213.19 144.57C213.558 144.562 213.92 144.474 214.25 144.31C214.111 144.507 213.922 144.663 213.701 144.76C213.481 144.857 213.238 144.891 213 144.86C212.796 144.816 212.612 144.709 212.472 144.555C212.332 144.401 212.244 144.207 212.22 144C212.24 144 212.32 143.93 212.35 144Z" fill="#263238"/>
<path d="M216.21 140.12C216.21 140.12 216.52 141.57 216.57 142.27C216.57 142.33 216.41 142.37 216.17 142.4C215.583 142.55 214.965 142.536 214.385 142.359C213.805 142.183 213.285 141.851 212.88 141.4C212.83 141.34 212.88 141.26 212.98 141.3C213.885 141.852 214.944 142.097 216 142C216 141.8 215.39 139.53 215.5 139.51C216.038 139.522 216.572 139.603 217.09 139.75C216.54 136.75 215.51 133.75 215 130.75C215 130.64 215.14 130.59 215.18 130.69C216.392 133.802 217.287 137.028 217.85 140.32C218 140.64 216.5 140.22 216.21 140.12Z" fill="#263238"/>
<path d="M216.13 141.94C215.811 142.553 215.339 143.073 214.76 143.45C214.438 143.645 214.065 143.735 213.69 143.71C212.87 143.65 212.69 142.93 212.76 142.29C212.778 141.951 212.838 141.615 212.94 141.29C213.908 141.838 215.025 142.065 216.13 141.94Z" fill="#263238"/>
<path d="M214.76 143.45C214.438 143.644 214.065 143.735 213.69 143.71C212.87 143.65 212.69 142.93 212.76 142.29C213.175 142.231 213.598 142.314 213.961 142.524C214.323 142.734 214.605 143.06 214.76 143.45Z" fill="#FF9ABB"/>
<path d="M198.279 123.89C200.279 121.79 203.479 108.46 191.799 104.3C180.289 100.21 169.799 115.99 179.279 124.68C185.619 130.51 193.999 128.34 198.279 123.89Z" fill="#263238"/>
<path d="M197.209 138.8C198.739 138.54 202.289 133.89 201.629 126.45C201.629 126.45 201.759 133.17 201.369 134.2C200.979 135.23 203.369 131.58 202.899 125.57C204.927 126.719 207.109 127.571 209.379 128.1C212.289 128.6 214.019 128.38 214.199 128.16C214.379 127.94 210.079 127.06 208.819 125.89C208.819 125.89 216.709 128.58 220.209 128.48C220.609 128.48 220.209 120.17 214.479 117.24C208.749 114.31 200.659 118.99 198.609 121.44C198.609 121.44 195.969 122.11 193.479 126.38C190.989 130.65 195.569 139.07 197.209 138.8Z" fill="#263238"/>
<path d="M198.459 139.86C198.459 139.86 195.349 135.3 193.289 136.4C191.229 137.5 193.519 144.09 195.909 145.01C196.208 145.151 196.533 145.229 196.863 145.241C197.193 145.253 197.522 145.197 197.83 145.079C198.138 144.96 198.419 144.78 198.656 144.55C198.893 144.32 199.082 144.045 199.209 143.74L198.459 139.86Z" fill="#D3766A"/>
<path d="M194 138.27C194 138.27 194 138.33 194 138.34C194.77 138.735 195.448 139.286 195.991 139.96C196.533 140.634 196.928 141.414 197.15 142.25C197.054 142.083 196.922 141.938 196.765 141.826C196.608 141.713 196.428 141.636 196.239 141.599C196.049 141.562 195.854 141.566 195.666 141.611C195.478 141.656 195.302 141.741 195.15 141.86C195.15 141.86 195.15 141.96 195.15 141.95C195.447 141.861 195.765 141.865 196.06 141.961C196.355 142.058 196.613 142.242 196.8 142.49C197.103 142.916 197.361 143.371 197.57 143.85C197.65 144 197.92 143.92 197.87 143.75C197.94 141.55 196.3 138.52 194 138.27Z" fill="#263238"/>
<path d="M210.469 156.57L208.529 163.35L199.579 155.95L197.579 158.83C197.579 158.83 206.849 171.1 206.839 170.51L208.949 164.62L213.229 168.12L211.899 158.35L210.469 156.57Z" fill="#EBEBEB"/>
<path d="M212.82 163.25C212.55 161.65 212.32 160.02 211.97 158.43C211.965 158.419 211.958 158.41 211.948 158.404C211.938 158.397 211.927 158.394 211.915 158.394C211.903 158.394 211.892 158.397 211.882 158.404C211.872 158.41 211.865 158.419 211.86 158.43C211.7 160.02 212.77 166.16 212.92 167.64C212.74 167.48 208.98 164.57 208.92 164.64C208.43 165.59 206.92 169.88 206.78 170.27C205.32 168.32 199.78 161.27 198.05 159.44C198 159.44 197.92 159.44 197.96 159.5C199.29 161.59 206.7 171.11 206.79 171.07C207.629 169.037 208.36 166.96 208.98 164.85C210.389 166.196 211.889 167.442 213.47 168.58C213.349 166.793 213.132 165.014 212.82 163.25Z" fill="#263238"/>
<path d="M207.759 167.14C207.854 167.547 208.068 167.917 208.373 168.203C208.679 168.488 209.062 168.676 209.474 168.744C209.887 168.811 210.31 168.754 210.69 168.581C211.071 168.407 211.391 168.125 211.61 167.769C211.83 167.413 211.938 167 211.923 166.582C211.907 166.164 211.768 165.761 211.522 165.422C211.277 165.084 210.936 164.826 210.544 164.682C210.152 164.537 209.726 164.512 209.319 164.61C209.05 164.672 208.796 164.788 208.571 164.949C208.347 165.11 208.156 165.314 208.011 165.549C207.866 165.785 207.769 166.047 207.726 166.32C207.683 166.593 207.694 166.872 207.759 167.14Z" fill="#68B8BE"/>
<path d="M208.76 165.9C208.76 165.9 201.38 160.25 201.1 163.16C200.98 163.939 201.072 164.737 201.366 165.469C201.659 166.2 202.144 166.84 202.77 167.32C202.77 167.32 201.77 170.68 203.19 171.02C204.61 171.36 209.19 168.41 209.19 167.62C209.125 167.03 208.98 166.451 208.76 165.9Z" fill="#68B8BE"/>
<path d="M210 165.57C210 165.57 212.36 158.09 213.58 160.46C213.942 161.079 214.173 161.766 214.261 162.478C214.349 163.189 214.291 163.912 214.09 164.6C214.09 164.6 215.92 167.1 215.18 167.92C214.44 168.74 210.65 167.92 210.39 167.18C210.205 166.658 210.074 166.119 210 165.57Z" fill="#68B8BE"/>
</svg>
