<svg width="51" height="46" viewBox="0 0 51 46" fill="none" xmlns="http://www.w3.org/2000/svg">
<path d="M10 0C5.58984 0 2 3.58984 2 8C2 12.4102 5.58984 16 10 16C14.4102 16 18 12.4102 18 8C18 3.58984 14.4102 0 10 0ZM38.9063 9.3125C37.9141 9.3125 37.0938 10.1016 37.0938 11.0938C37.0938 11.4922 37.2188 11.8594 37.4375 12.1562C32.668 12.9102 29 17.0195 29 22H28.8125C28.2578 22 27.8125 22.4492 27.8125 23C27.8125 23.5508 28.2578 24 28.8125 24H49.0938C49.6445 24 50.0938 23.5508 50.0938 23C50.0938 22.4492 49.6484 22 49.0938 22H49.0313C49.0313 21.9297 49.0156 21.8477 49 21.7812C48.8984 16.8398 45.1875 12.8047 40.4063 12.125C40.6094 11.832 40.6875 11.4766 40.6875 11.0938C40.6875 10.1016 39.8984 9.3125 38.9063 9.3125ZM5 18C4.29688 18 2.12109 18.2109 0.84375 18.4062C0.35547 18.4805 0 18.9141 0 19.4062V45C0 45.5547 0.44922 46 1 46H21C21.5508 46 22 45.5547 22 45V33.1562L24.6875 36.1875C25.4648 37.0742 26.2578 38 27.5 38C28.7617 38 29.4102 37.4258 30.4063 36.0938C30.7539 35.6094 35.0078 30.6484 37.7188 27.5C38.0156 27.207 39.543 26.7852 40.5625 26.5C42.0586 26.0781 43.6016 25.6406 44.6563 25H30.5L27.6563 27.75L22.0313 19.4375C21.9961 19.3867 21.9531 19.3242 21.9063 19.2812C20.6758 18.0508 15.9375 18 15 18C14.5352 18 14.1367 18.332 14.0313 18.7812L10 35.6875L5.96875 18.7812C5.86328 18.332 5.46484 18 5 18Z" fill="white"/>
</svg>
