<?xml version="1.0" encoding="utf-8"?>
<!-- Generator: Adobe Illustrator 22.0.0, SVG Export Plug-In . SVG Version: 6.00 Build 0)  -->
<svg version="1.1" id="Layer_1" xmlns="http://www.w3.org/2000/svg" xmlns:xlink="http://www.w3.org/1999/xlink" x="0px" y="0px"
	 viewBox="0 0 340.6 81.5" style="enable-background:new 0 0 340.6 81.5;" xml:space="preserve">
<style type="text/css">
	.st0{fill:#456F72;}
	.st1{fill:#FFFFFF;filter:url(#Adobe_OpacityMaskFilter);}
	.st2{mask:url(#mask0_212_18_1_);}
	.st3{fill:#FFFFFF;filter:url(#Adobe_OpacityMaskFilter_1_);}
	.st4{mask:url(#mask1_212_18_1_);}
	.st5{fill:#FFFFFF;}
</style>
<path class="st0" d="M101.9,53.5c-1.2-1.2-1.5-2.6-1.5-5.1V36.7c0-4.8,1.8-6.1,3.8-6.1c1.9,0,2.4,1.8,2.4,3.8v14
	c0,2.4-0.3,3.9-1.5,5.1h14.4c-1.2-1.2-1.5-2.6-1.5-5.1v-7.3l0-5.1c0.2-4.1,1.9-5.3,3.8-5.3c1.9,0,2.4,1.8,2.4,3.8v14
	c0,2.4-0.3,3.9-1.5,5.1h14.4c-1.2-1.2-1.5-2.6-1.5-5.1v-7.3l0-8.2c0-4.5-1.1-10.1-7.3-10.1c-7.3,0-8.2,6-9.9,6
	c-0.1,0-0.5,0.1-0.8-0.5c-0.8-3-2.7-5.5-6.8-5.5c-7.3,0-8.2,6-9.9,6c-0.2,0-0.3,0-0.3-1V27c0-2.2-0.5-3.6-2.4-3.6H87.5
	c1.2,1.2,1.5,2.6,1.5,5.1v19.9c0,2.4-0.3,3.9-1.5,5.1H101.9z"/>
<path class="st0" d="M142.1,28c0,0.5,0.5,0.6,0.6,0.6c1.6,0.6,1.4,2.8,1.4,3.3v16.5c0,2.4-0.3,3.9-1.5,5.1h14.4
	c-1.2-1.2-1.5-2.6-1.5-5.1v-24c0-0.9,0-1.7-1.3-1.7c-2.5,0-10,3.9-11.7,4.7C142.5,27.5,142.1,27.6,142.1,28z M149.8,8
	c-3.8,0-6.3,2.5-6.3,6.3s2.5,6.3,6.3,6.3c3.8,0,6.3-2.5,6.3-6.3S153.5,8,149.8,8z"/>
<path class="st0" d="M162.3,15.7c2.1,0.6,1.8,2.8,1.8,3.3v30.9c0,2.2,0.5,3.5,2.4,3.5h10.5c-1.2-1.2-1.5-2.6-1.5-5.1V11.6
	c0-0.9,0-1.7-1.3-1.7c-2.5,0-10.4,3.9-12.1,4.7c-0.1,0-0.5,0.1-0.5,0.6C161.7,15.6,162.2,15.7,162.3,15.7z"/>
<path class="st0" d="M182.3,28c0,0.5,0.5,0.6,0.6,0.6c1.6,0.6,1.4,2.8,1.4,3.3v16.5c0,2.4-0.3,3.9-1.5,5.1h14.4
	c-1.2-1.2-1.5-2.6-1.5-5.1v-24c0-0.9,0-1.7-1.3-1.7c-2.5,0-10,3.9-11.7,4.7C182.7,27.5,182.3,27.6,182.3,28z M190,8
	c-3.8,0-6.3,2.5-6.3,6.3s2.5,6.3,6.3,6.3c3.8,0,6.3-2.5,6.3-6.3S193.8,8,190,8z"/>
<path class="st0" d="M217.2,53.5c-1.2-1.2-1.5-2.6-1.5-5.1V25.6h4.1v-2.1h-5.5c-3.6,0-6.2-3.5-6.2-6.3c0-1.3,1.1-2,2.1-2
	c4.3,0,8,5.5,10.8,5.5c0.9,0,1.2-1.2,1.9-2.7c0.7-1.5,1.5-3.3,1.5-4.8c0-1.8-4.6-3.2-7.9-3.2c-8.8,0-12.2,6.2-12.2,13.1v25.5
	c0,2.4-0.3,3.9-1.5,5.1H217.2z"/>
<path class="st0" d="M235.5,49.7c2.9,3,6.7,4.4,10.7,4.4c4,0,8.1-1.6,11.2-4.8c6.1-6.2,6.3-16.1,0.3-22.1c-2.9-3-6.7-4.4-10.6-4.4
	c-4,0-8.1,1.6-11.2,4.7C229.7,33.8,229.5,43.6,235.5,49.7z M244.5,25.1c2.8-0.4,6,5.2,7.1,12.7c1.1,7.6-0.2,13.9-3,14.3
	c-2.8,0.4-6-5.2-7.1-12.7C240.4,31.9,241.7,25.5,244.5,25.1z"/>
<path class="st0" d="M273.5,49.7c2.9,3,6.7,4.4,10.7,4.4c4,0,8.1-1.6,11.2-4.8c6.1-6.2,6.3-16.1,0.3-22.1c-2.9-3-6.7-4.4-10.6-4.4
	c-4,0-8.1,1.6-11.2,4.7C267.6,33.8,267.5,43.6,273.5,49.7z M282.5,25.1c2.8-0.4,6,5.2,7.1,12.7c1.1,7.6-0.2,13.9-3,14.3
	c-2.8,0.4-6-5.2-7.1-12.7C278.3,31.9,279.6,25.5,282.5,25.1z"/>
<path class="st0" d="M319.2,54.1c2.2,0,4.9-0.7,7.1-4.4c0.3-0.5,0.8-0.8,0.8-0.2v0.4c0,2.2,0.5,3.5,2.4,3.5H340
	c-1.2-1.2-1.5-2.6-1.5-5.1V11.6c0-0.9,0-1.7-1.3-1.7c-2.5,0-10.4,4-12.1,4.7c-0.1,0-0.5,0.1-0.5,0.6c0,0.5,0.5,0.6,0.6,0.6
	c2,0.7,1.8,2.8,1.8,3.3v6c0,1.1-0.5,1.1-0.7,1.1c-0.9,0-2.4-3.4-7.2-3.4c-8.5,0-12.2,8.5-12.2,16.3C307,47.4,311.4,54.1,319.2,54.1z
	 M324,27.3c2.7,0,3.1,4.1,3.1,6.3V42c0,2.4-0.3,6.8-3.8,6.8c-4.8,0-4.9-5.9-4.9-10.9C318.4,33.2,319.2,27.3,324,27.3z"/>
<defs>
	<filter id="Adobe_OpacityMaskFilter" filterUnits="userSpaceOnUse" x="0.4" y="0.2" width="80.8" height="80.8">
		<feColorMatrix  type="matrix" values="1 0 0 0 0  0 1 0 0 0  0 0 1 0 0  0 0 0 1 0"/>
	</filter>
</defs>
<mask maskUnits="userSpaceOnUse" x="0.4" y="0.2" width="80.8" height="80.8" id="mask0_212_18_1_">
	<path class="st1" d="M0.4,0.2h80.8V81H0.4V0.2z"/>
</mask>
<g class="st2">
	<defs>
		<filter id="Adobe_OpacityMaskFilter_1_" filterUnits="userSpaceOnUse" x="0.4" y="0.2" width="80.8" height="80.8">
			<feColorMatrix  type="matrix" values="1 0 0 0 0  0 1 0 0 0  0 0 1 0 0  0 0 0 1 0"/>
		</filter>
	</defs>
	<mask maskUnits="userSpaceOnUse" x="0.4" y="0.2" width="80.8" height="80.8" id="mask1_212_18_1_">
		<path class="st3" d="M40.8,0.2C18.5,0.2,0.4,18.3,0.4,40.6S18.5,81,40.8,81c22.3,0,40.4-18.1,40.4-40.4S63.1,0.2,40.8,0.2z"/>
	</mask>
	<g class="st4">
		<path class="st0" d="M0.4,0.2h80.8V81H0.4V0.2z"/>
	</g>
</g>
<path class="st5" d="M38.5,60.1c12.3,0,17.4-8.9,17.4-16.7c0-6.8-5-11.7-12.4-12.4c-6.7-0.6-15-1.5-15-6.3c0-1.7,1.3-3.1,2.9-3.1
	c5.9,0,10,5.3,16.4,5.3c5.4,0,9.4-12.2,6.3-12.2c-1.4,0-2.3,1.8-5.3,1.8c-4,0-6.7-1.8-10.1-1.8c-7.4,0-13.6,6-13.6,13.4
	c0,9.3,7.5,11.9,16.2,14.6c4.4,1.4,8.3,3.5,8.3,8c0,3.4-3,5.9-6.4,5.9c-6.9,0-6.1-6.4-5.5-11c0.2-1.7-0.9-2.6-2.3-2.6
	C33.3,43,24.9,47.3,24.9,50C24.9,55.3,31.2,60.1,38.5,60.1z"/>
</svg>
