<?xml version="1.0" encoding="utf-8"?>
<!-- Generator: Adobe Illustrator 23.0.1, SVG Export Plug-In . SVG Version: 6.00 Build 0)  -->
<svg version="1.1" id="Layer_1" xmlns="http://www.w3.org/2000/svg" xmlns:xlink="http://www.w3.org/1999/xlink" x="0px" y="0px"
	 viewBox="0 0 81.14 71.07" style="enable-background:new 0 0 81.14 71.07;" xml:space="preserve">
<path d="M6.16,39.28c0.8,0.53,1.63,1.02,2.38,1.61c5.17,4.04,10.86,7.18,17,9.39c3.24,1.17,6.68,1.92,10.1,2.45
	c3.46,0.53,7.01,0.79,10.52,0.74c5.11-0.07,10.14-1.01,15.03-2.56c5.23-1.66,10.14-4.03,14.8-6.93c0.93-0.58,1.02-1.28,0.73-2.14
	c-0.97,0.75-1.83,1.62-2.86,2.16c-2.2,1.16-5.77-0.06-7.08-3.08c-1.39-3.22-1.4-6.49,0.5-9.54c1.96-3.16,6.06-3.46,8.62-0.74
	c0.18,0.2,0.4,0.36,0.79,0.7c0.05-0.62,0.1-1.05,0.11-1.48c0.01-1.62-0.05-3.25,0.06-4.87c0.02-0.36,0.53-0.87,0.91-0.98
	c0.7-0.2,0.76,0.39,0.76,0.93c-0.01,6.37,0,12.74-0.04,19.12c0,0.43-0.25,0.94-0.54,1.28c-2.73,3.17-5.49,6.31-8.24,9.46
	c-5.02,5.75-10.98,9.99-18.54,11.77c-2.85,0.67-5.71,1.08-8.62,0.85c-5.26-0.41-10.12-2.01-14.62-4.85
	c-4.25-2.68-7.52-6.29-10.71-10.1c-3.36-4.02-7.04-7.77-10.57-11.65c-0.32-0.35-0.55-0.77-0.82-1.16
	C5.93,39.54,6.05,39.41,6.16,39.28z M77.03,36.77c-0.31-1.34-0.53-2.38-0.78-3.41c-0.49-1.95-2-2.71-3.77-3.04
	c-1.33-0.25-3.24,0.91-3.95,2.31c-1.36,2.66-1.32,5.35,0.12,7.96c1.74,3.14,6.06,2.58,7.13,0.04
	C76.33,39.35,76.66,37.96,77.03,36.77z"/>
<path d="M21.51,5.97c0.06,0.78,0.11,1.43,0.18,2.39c1.21-1.43,2.36-2.52,4.23-2.5c1.91,0.01,3.25,0.77,4.23,2.58
	c0.34-0.46,0.54-0.79,0.8-1.08c1.81-2.04,6.27-2.1,7.65,0.35c0.4,0.7,0.82,1.51,0.84,2.27c0.09,3.62,0.04,7.23,0.04,11.05
	c-1.07,0-2.09,0.06-3.09-0.05c-0.22-0.02-0.52-0.66-0.53-1.03c-0.05-2.83-0.02-5.66-0.04-8.49c-0.01-1.45-0.59-2.18-1.88-2.55
	c-1.06-0.3-2.25,0.16-2.86,1.23c-0.25,0.43-0.32,1.02-0.32,1.53c-0.03,3.04-0.01,6.07-0.01,9.25c-1.2,0-2.33,0-3.65,0
	c0-1.44,0-2.88,0-4.33c0-1.71,0.01-3.41,0-5.12c-0.01-1.53-0.95-2.57-2.37-2.65c-1.33-0.08-2.67,1.08-2.7,2.52
	c-0.07,2.62-0.04,5.25-0.05,7.87c-0.01,1.86,0,1.86-1.93,1.85c-0.53,0-1.06,0-1.75,0c0-0.68,0-1.21,0-1.74c0-3.91,0-7.83,0.01-11.74
	c0-1.61,0.01-1.61,1.66-1.61C20.43,5.97,20.92,5.97,21.51,5.97z"/>
<path d="M0.06,15.11c0.74,0,1.37,0.03,1.99-0.01c0.89-0.05,1.4,0.15,1.71,1.16c0.47,1.51,3.1,2.39,5.1,1.87
	c0.48-0.12,0.95-0.31,1.38-0.56c0.98-0.58,1.6-1.51,1.19-2.58c-0.26-0.69-0.98-1.41-1.67-1.71c-1.36-0.58-2.84-0.87-4.26-1.3
	c-0.67-0.2-1.35-0.41-1.98-0.71C1.17,10.13,0.26,8.61,0.46,6C0.65,3.56,2.2,2.08,4.34,1.34c2.8-0.96,5.6-0.99,8.21,0.79
	c1.46,1,2.16,2.1,2.34,4.4c-0.77,0-1.54-0.08-2.28,0.02c-1.07,0.14-1.25-0.65-1.66-1.3C9.78,3.4,5.75,3.39,4.49,5.21
	C3.64,6.45,4.24,8.06,5.9,8.64c1.56,0.54,3.21,0.84,4.78,1.37c3.73,1.27,5.56,3.91,4.04,7.72c-0.4,1.01-1.41,1.96-2.38,2.53
	c-3.15,1.83-7.99,1.5-10.35-0.58C0.68,18.54-0.26,17.17,0.06,15.11z"/>
<path d="M53.65,20.89c-0.06,0.05-0.09,0.09-0.13,0.09c-3.42,0.48-3.44,0.47-3.44-2.89c0-5.16-0.01-10.32,0.04-15.48
	c0.01-0.53,0.33-1.45,0.64-1.51c0.9-0.17,1.87-0.01,2.81,0.08c0.08,0.01,0.18,0.44,0.18,0.67c0.01,6.24,0,12.49,0,18.73
	C53.74,20.69,53.67,20.81,53.65,20.89z"/>
<path d="M30.61,30.78c-0.62,0.05-1.27,0.16-1.92,0.14c-0.95-0.03-1.33,0.31-1.31,1.31c0.05,3.29,0.01,6.58,0.01,9.87
	c0,2.07,0,2.07-2.22,1.8c-0.05-0.49-0.14-1.02-0.14-1.54c-0.02-3.12-0.02-6.25-0.03-9.37c0-1.86-0.01-1.85-1.83-2.12
	c-0.2-0.03-0.39-0.1-0.61-0.17c0-0.53,0-1.02,0-1.48c0.11-0.08,0.17-0.17,0.24-0.18c2.01-0.33,2.01-0.33,2.23-2.34
	c0.3-2.67,2.55-4.22,5.27-3.62c0.53,0.12,1.14,0.23,0.92,1.01c-0.17,0.57-0.28,1.22-1.16,1.15c-0.53-0.04-1.11-0.05-1.6,0.12
	c-0.91,0.32-1.51,2.52-0.94,3.29c0.12,0.16,0.41,0.24,0.64,0.27c0.33,0.05,0.66,0.02,1,0.02C30.81,28.95,30.82,28.96,30.61,30.78z"
	/>
<path d="M43.13,21.06c0-5.06,0-9.95,0-15.08c1.01,0,1.94-0.06,2.86,0.04c0.25,0.03,0.62,0.57,0.62,0.87c0.04,4.45,0.05,8.91,0,13.36
	c0,0.27-0.5,0.72-0.82,0.77C44.99,21.13,44.15,21.06,43.13,21.06z"/>
<path d="M61,13.54c0,2.16-0.02,4.32,0.01,6.48c0.01,0.74-0.21,1.05-0.98,1.04c-3.27-0.05-2.6,0.33-2.63-2.48
	c-0.05-3.74,0.02-7.48-0.03-11.22c-0.01-1.09,0.34-1.54,1.44-1.4c0.37,0.05,0.75,0.04,1.12,0c0.82-0.07,1.1,0.29,1.08,1.09
	C60.97,9.22,61,11.38,61,13.54z"/>
<path d="M1.69,46.29C-1.04,43.52-0.3,38.03,3.06,35c2.9-2.62,7.38-2.59,9.04-0.31C5.48,35.66,2.41,39.84,1.69,46.29z"/>
<path d="M46.81,2.03c-0.01,1.04-0.96,1.92-2.04,1.89c-1.06-0.03-2.02-0.96-2.03-1.96c0-1,1.11-2,2.17-1.96
	C46.05,0.05,46.83,0.89,46.81,2.03z"/>
<path d="M61.14,2.12c-0.05,1.03-0.93,1.85-1.95,1.81c-1.1-0.04-2.08-0.98-2.04-1.95c0.04-1.04,1.15-2.04,2.18-1.97
	C60.39,0.08,61.19,1.01,61.14,2.12z"/>
<path d="M62.44,33.69c-1.59-5.35-6.79-5.86-9.83-3.81c-2.36,1.58-2.99,4.11-3.09,7.52c0.19,0.65,0.47,1.98,0.95,3.23
	c1.62,4.13,7.68,5.05,10.46,1.59C62.97,39.68,63.35,36.75,62.44,33.69z M59.49,41.26c-1.04,1.23-2.65,1.69-4.15,1.39
	c-1.17-0.23-2.27-0.94-3-2.12c-1.49-2.43-1.31-6.55,0.57-8.68c0.88-1,2.09-1.51,3.29-1.52c1.55-0.01,3.09,0.81,3.95,2.5
	c0.56,1.15,0.75,2.5,1.12,3.76C60.98,38.35,60.63,39.91,59.49,41.26z"/>
<path d="M45.59,32.34c-2.04-4.28-7.7-4.47-10.22-1.65c-1.48,1.65-2.15,3.57-2.15,5.83c0.25,1.2,0.39,2.43,0.76,3.59
	c1.3,4.06,6.45,5.71,10.02,2.76C46.61,40.72,47.26,35.84,45.59,32.34z M44.04,39.97c-0.74,1.53-1.85,2.49-3.45,2.71
	c-0.23,0.03-0.47,0.05-0.72,0.05c-0.23,0-0.45-0.01-0.67-0.04c-1.5-0.2-2.61-1.06-3.28-2.43c-0.29-0.58-0.5-1.17-0.65-1.76
	c-0.45-1.81-0.26-3.65,0.58-5.46c0.8-1.74,2.78-2.92,4.35-2.74c1.97,0.23,3.92,1.97,4.26,3.94c0.16,0.97,0.29,1.93,0.25,2.89
	C44.68,38.09,44.49,39.04,44.04,39.97z"/>
<polygon points="76.25,33.36 76.44,36.81 76.72,41.84 78.5,39.64 "/>
</svg>
