<svg width="60" height="60" viewBox="0 0 60 60" fill="none" xmlns="http://www.w3.org/2000/svg">
<path d="M23 17H8C7.44772 17 7 16.5523 7 16C7 15.4477 7.44772 15 8 15H23C23.5523 15 24 15.4477 24 16C24 16.5523 23.5523 17 23 17ZM44.8442 37.9502L43.8432 39.6838C48.0063 42.4556 50.6396 47.0093 50.9656 52H52.9707C52.6369 46.2949 49.623 41.0843 44.8442 37.9502ZM12 22H19C20.6561 21.9982 21.9982 20.6561 22 19H9C9.00181 20.6561 10.3439 21.9982 12 22ZM29 60H3C1.3439 59.9982 0.00181 58.6561 0 57V3C0.00181 1.3439 1.3439 0.00181 3 0H29V60ZM18 53C18.0001 52.7348 17.8947 52.4804 17.7072 52.2928C17.5196 52.1053 17.2652 51.9999 17 52H6C5.44772 52 5 52.4477 5 53C5 53.5523 5.44772 54 6 54H17C17.2652 54.0001 17.5196 53.8947 17.7072 53.7072C17.8947 53.5196 18.0001 53.2652 18 53ZM18 47C18.0001 46.7348 17.8947 46.4804 17.7072 46.2928C17.5196 46.1053 17.2652 45.9999 17 46H6C5.44772 46 5 46.4477 5 47C5 47.5523 5.44772 48 6 48H17C17.2652 48.0001 17.5196 47.8947 17.7072 47.7072C17.8947 47.5196 18.0001 47.2652 18 47ZM18 41C18.0001 40.7348 17.8947 40.4804 17.7072 40.2928C17.5196 40.1053 17.2652 39.9999 17 40H6C5.44772 40 5 40.4477 5 41C5 41.5523 5.44772 42 6 42H17C17.2652 42.0001 17.5196 41.8947 17.7072 41.7072C17.8947 41.5196 18.0001 41.2652 18 41ZM18 35C18.0001 34.7348 17.8947 34.4804 17.7072 34.2928C17.5196 34.1053 17.2652 33.9999 17 34H6C5.44772 34 5 34.4477 5 35C5 35.5523 5.44772 36 6 36H17C17.2652 36.0001 17.5196 35.8947 17.7072 35.7072C17.8947 35.5196 18.0001 35.2652 18 35ZM18 29C18.0001 28.7348 17.8947 28.4804 17.7072 28.2928C17.5196 28.1053 17.2652 27.9999 17 28H6C5.44772 28 5 28.4477 5 29C5 29.5523 5.44772 30 6 30H17C17.2652 30.0001 17.5196 29.8947 17.7072 29.7072C17.8947 29.5196 18.0001 29.2652 18 29ZM19 24C21.7601 23.9968 23.9968 21.7601 24 19V18.8157C25.2045 18.3959 26.0085 17.2562 25.9999 15.9806C25.9914 14.705 25.1722 13.5761 23.9621 13.1725C23.6586 9.56592 21.3213 6 15.5 6C9.67871 6 7.34143 9.56592 7.0379 13.1725C5.82783 13.5761 5.00864 14.7049 5.00008 15.9805C4.99151 17.2561 5.79546 18.3958 7 18.8157V19C7.00324 21.7601 9.23992 23.9968 12 24H19ZM26 53C26.0001 52.7348 25.8947 52.4804 25.7072 52.2928C25.5196 52.1053 25.2652 51.9999 25 52H21C20.4477 52 20 52.4477 20 53C20 53.5523 20.4477 54 21 54H25C25.2652 54.0001 25.5196 53.8947 25.7072 53.7072C25.8947 53.5196 26.0001 53.2652 26 53ZM26 47C26.0001 46.7348 25.8947 46.4804 25.7072 46.2928C25.5196 46.1053 25.2652 45.9999 25 46H21C20.4477 46 20 46.4477 20 47C20 47.5523 20.4477 48 21 48H25C25.2652 48.0001 25.5196 47.8947 25.7072 47.7072C25.8947 47.5196 26.0001 47.2652 26 47ZM26 41C26.0001 40.7348 25.8947 40.4804 25.7072 40.2928C25.5196 40.1053 25.2652 39.9999 25 40H21C20.4477 40 20 40.4477 20 41C20 41.5523 20.4477 42 21 42H25C25.2652 42.0001 25.5196 41.8947 25.7072 41.7072C25.8947 41.5196 26.0001 41.2652 26 41ZM26 35C26.0001 34.7348 25.8947 34.4804 25.7072 34.2928C25.5196 34.1053 25.2652 33.9999 25 34H21C20.4477 34 20 34.4477 20 35C20 35.5523 20.4477 36 21 36H25C25.2652 36.0001 25.5196 35.8947 25.7072 35.7072C25.8947 35.5196 26.0001 35.2652 26 35ZM26 29C26.0001 28.7348 25.8947 28.4804 25.7072 28.2928C25.5196 28.1053 25.2652 27.9999 25 28H21C20.4477 28 20 28.4477 20 29C20 29.5523 20.4477 30 21 30H25C25.2652 30.0001 25.5196 29.8947 25.7072 29.7072C25.8947 29.5196 26.0001 29.2652 26 29ZM15.5 8C10.5503 8 9.32977 10.983 9.06793 13H21.9321C21.6702 10.983 20.4497 8 15.5 8ZM48.9608 52H36.7319L42.8409 41.4197C46.3887 43.8277 48.6425 47.7241 48.9608 52ZM42 49.9999C42 49.4477 41.5523 48.9999 41 48.9999C40.4477 48.9999 40 49.4477 40 49.9999C40 50.5522 40.4477 50.9999 41 50.9999C41.5523 50.9999 42 50.5522 42 49.9999ZM44 45.9999C44 45.4477 43.5523 44.9999 43 44.9999C42.4477 44.9999 42 45.4477 42 45.9999C42 46.5522 42.4477 46.9999 43 46.9999C43.5523 46.9999 44 46.5522 44 45.9999ZM45 49.9999C45 50.4044 45.2436 50.7691 45.6173 50.9239C45.9909 51.0787 46.4211 50.9931 46.7071 50.7071C46.9931 50.4211 47.0787 49.991 46.9239 49.6173C46.7691 49.2436 46.4045 49 46 49C45.4477 49 45 49.4477 45 49.9999ZM60 3V57C59.9982 58.6561 58.6561 59.9982 57 60H31V0H57C58.6561 0.00181 59.9982 1.3439 60 3ZM34 7C33.9999 7.26524 34.1053 7.51963 34.2928 7.70718C34.4804 7.89473 34.7348 8.00007 35 8H46C46.5523 8 47 7.55228 47 7C47 6.44772 46.5523 6 46 6H35C34.7348 5.99993 34.4804 6.10527 34.2928 6.29282C34.1053 6.48037 33.9999 6.73477 34 7ZM34 13C33.9999 13.2652 34.1053 13.5196 34.2928 13.7072C34.4804 13.8947 34.7348 14.0001 35 14H46C46.5523 14 47 13.5523 47 13C47 12.4477 46.5523 12 46 12H35C34.7348 11.9999 34.4804 12.1053 34.2928 12.2928C34.1053 12.4804 33.9999 12.7348 34 13ZM34 19C33.9999 19.2652 34.1053 19.5196 34.2928 19.7072C34.4804 19.8947 34.7348 20.0001 35 20H46C46.5523 20 47 19.5523 47 19C47 18.4477 46.5523 18 46 18H35C34.7348 17.9999 34.4804 18.1053 34.2928 18.2928C34.1053 18.4804 33.9999 18.7348 34 19ZM34 25C33.9999 25.2652 34.1053 25.5196 34.2928 25.7072C34.4804 25.8947 34.7348 26.0001 35 26H46C46.5523 26 47 25.5523 47 25C47 24.4477 46.5523 24 46 24H35C34.7348 23.9999 34.4804 24.1053 34.2928 24.2928C34.1053 24.4804 33.9999 24.7348 34 25ZM34 31C33.9999 31.2652 34.1053 31.5196 34.2928 31.7072C34.4804 31.8947 34.7348 32.0001 35 32H46C46.5523 32 47 31.5523 47 31C47 30.4477 46.5523 30 46 30H35C34.7348 29.9999 34.4804 30.1053 34.2928 30.2928C34.1053 30.4804 33.9999 30.7348 34 31ZM55 52.999C54.9806 45.8609 51.1692 39.2709 44.9917 35.6943C44.7621 35.5614 44.4891 35.5253 44.2328 35.594C43.9766 35.6627 43.7583 35.8306 43.626 36.0606L34.1338 52.5C33.9551 52.8094 33.9552 53.1907 34.1338 53.5001C34.3125 53.8095 34.6427 54.0001 35 54H54C54.2654 54.0001 54.52 53.8947 54.7076 53.7069C54.8952 53.5191 55.0004 53.2644 55 52.999ZM55 31C55.0001 30.7348 54.8947 30.4804 54.7072 30.2928C54.5196 30.1053 54.2652 29.9999 54 30H50C49.4477 30 49 30.4477 49 31C49 31.5523 49.4477 32 50 32H54C54.2652 32.0001 54.5196 31.8947 54.7072 31.7072C54.8947 31.5196 55.0001 31.2652 55 31ZM55 25C55.0001 24.7348 54.8947 24.4804 54.7072 24.2928C54.5196 24.1053 54.2652 23.9999 54 24H50C49.4477 24 49 24.4477 49 25C49 25.5523 49.4477 26 50 26H54C54.2652 26.0001 54.5196 25.8947 54.7072 25.7072C54.8947 25.5196 55.0001 25.2652 55 25ZM55 19C55.0001 18.7348 54.8947 18.4804 54.7072 18.2928C54.5196 18.1053 54.2652 17.9999 54 18H50C49.4477 18 49 18.4477 49 19C49 19.5523 49.4477 20 50 20H54C54.2652 20.0001 54.5196 19.8947 54.7072 19.7072C54.8947 19.5196 55.0001 19.2652 55 19ZM55 13C55.0001 12.7348 54.8947 12.4804 54.7072 12.2928C54.5196 12.1053 54.2652 11.9999 54 12H50C49.4477 12 49 12.4477 49 13C49 13.5523 49.4477 14 50 14H54C54.2652 14.0001 54.5196 13.8947 54.7072 13.7072C54.8947 13.5196 55.0001 13.2652 55 13ZM55 7C55.0001 6.73476 54.8947 6.48037 54.7072 6.29282C54.5196 6.10527 54.2652 5.99993 54 6H50C49.4477 6 49 6.44772 49 7C49 7.55228 49.4477 8 50 8H54C54.2652 8.00007 54.5196 7.89473 54.7072 7.70718C54.8947 7.51963 55.0001 7.26523 55 7Z" fill="white"/>
</svg>
